<svg fill="none" height="239" viewBox="0 0 406 239" width="406" xmlns="http://www.w3.org/2000/svg"><g clip-rule="evenodd" fill="#1e64e6" fill-rule="evenodd"><path d="m398.968.577807c1.337.341787 2.145 1.703313 1.803 3.041053-10.556 41.31644-29.465 80.03204-55.56 113.75914-26.096 33.727-58.824 61.75-96.167 82.341s-78.508 33.313-120.958 37.382c-42.4487 4.068-85.2812-.603-125.8554-13.726-1.313708-.425-2.034233-1.835-1.609337-3.148.424897-1.314 1.834317-2.034 3.148017-1.61 39.92432 12.913 82.07092 17.51 123.83972 13.506 41.77-4.003 82.276-16.521 119.021-36.782 36.744-20.262 68.949-47.836 94.626-81.023 25.678-33.1866 44.284-71.2822 54.671-111.93686.341-1.33774 1.703-2.145121 3.041-1.803333z"/><path d="m399.043.598379c.858.24809 1.519.935081 1.733 1.802191l4.651 18.83213c.331 1.3404-.487 2.6954-1.828 3.0265-1.34.331-2.695-.4872-3.026-1.8277l-3.613-14.62826-10.862 10.44296c-.995.9569-2.578.9258-3.535-.0695-.957-.9954-.926-2.578.07-3.5349l13.983-13.44399c.644-.619022 1.569-.847522 2.427-.599431z"/></g></svg>