<svg width="541" height="136" viewBox="0 0 541 136" fill="none" xmlns="http://www.w3.org/2000/svg">
<path d="M3.704 24.584C3.256 24.584 2.62667 24.0827 1.816 23.08C1.00533 22.056 0.6 21.2773 0.6 20.744C0.6 20.1893 0.92 18.536 1.56 15.784C1.048 15.272 0.792 14.632 0.792 13.864C0.792 13.4373 1.304 13.0107 2.328 12.584C3.672 7.12267 4.344 3.66667 4.344 2.216C4.344 1.512 4.65333 1.16 5.272 1.16C5.784 1.16 6.44533 1.672 7.256 2.696C8.088 3.72 8.504 4.68 8.504 5.576C8.504 6.152 8.12 8.072 7.352 11.336C9.18667 11.016 11.0107 10.824 12.824 10.76C13.848 6.472 14.36 3.624 14.36 2.216C14.36 1.512 14.6693 1.16 15.288 1.16C15.8 1.16 16.4613 1.672 17.272 2.696C18.104 3.72 18.52 4.68 18.52 5.576C18.52 6.024 18.104 7.85867 17.272 11.08C18.3387 11.336 18.872 11.752 18.872 12.328C18.872 12.9893 18.0827 13.512 16.504 13.896C15.736 16.84 15.2347 18.792 15 19.752C14.7653 20.6907 14.584 21.4053 14.456 21.896C14.3493 22.3653 14.232 22.824 14.104 23.272C13.8693 24.1467 13.6453 24.584 13.432 24.584C12.92 24.584 12.3013 24.1787 11.576 23.368C10.872 22.5573 10.52 21.7467 10.52 20.936C10.52 20.4667 10.968 18.3867 11.864 14.696C9.41067 15.1013 7.52267 15.4747 6.2 15.816C5.53867 18.3547 5.10133 20.1253 4.888 21.128C4.67467 22.1093 4.504 22.824 4.376 23.272C4.14133 24.1467 3.91733 24.584 3.704 24.584ZM25.2838 1.096C25.8171 1.096 26.4891 1.48 27.2998 2.248C28.1318 3.016 28.5478 3.77333 28.5478 4.52C28.5478 5.24533 28.1638 7.144 27.3958 10.216C26.6278 13.288 26.2438 15.4107 26.2438 16.584C26.2438 17.736 26.3824 18.6213 26.6598 19.24C26.9584 19.8587 27.3638 20.168 27.8758 20.168C28.4091 20.168 29.0278 19.7947 29.7318 19.048C30.4358 18.28 31.1078 17.2987 31.7478 16.104C32.4091 14.888 32.9531 13.448 33.3798 11.784C33.8278 10.0987 34.0518 8.54133 34.0518 7.112C34.0518 5.66133 33.9771 4.49867 33.8278 3.624C33.6998 2.74933 33.6358 2.22667 33.6358 2.056C33.6358 1.39467 33.9131 1.064 34.4678 1.064C35.1504 1.064 36.0251 1.64 37.0918 2.792C38.1798 3.944 38.7238 5.32 38.7238 6.92C38.7238 8.49867 38.4464 10.3227 37.8918 12.392C37.3371 14.44 36.5904 16.3813 35.6518 18.216C34.7131 20.0507 33.5184 21.576 32.0678 22.792C30.6384 24.008 29.1664 24.616 27.6518 24.616C26.1584 24.616 24.8038 23.8267 23.5878 22.248C22.3718 20.6693 21.7638 19.0587 21.7638 17.416C21.7638 15.7733 21.9771 13.8747 22.4038 11.72C22.8304 9.544 23.2571 7.592 23.6838 5.864C24.1104 4.136 24.3238 2.90933 24.3238 2.184C24.3238 1.45867 24.6438 1.096 25.2838 1.096ZM44.603 1.16C45.0083 1.16 45.7977 1.59733 46.971 2.472C48.1657 3.32533 48.763 3.96533 48.763 4.392C48.763 5.13867 49.0083 6.36533 49.499 8.072C49.9897 9.77867 50.555 11.3253 51.195 12.712C51.835 11.9653 52.9123 10.5893 54.427 8.584C55.963 6.55733 57.2537 4.95733 58.299 3.784C59.3443 2.61067 60.123 2.024 60.635 2.024C61.147 2.024 61.6803 2.312 62.235 2.888C62.7897 3.464 63.067 4.04 63.067 4.616C63.067 5.192 62.9817 5.93867 62.811 6.856C62.6403 7.752 62.4483 8.59467 62.235 9.384C62.043 10.152 61.755 11.208 61.371 12.552C61.0083 13.896 60.7203 14.9627 60.507 15.752C60.315 16.52 60.1123 17.352 59.899 18.248C59.6857 19.1227 59.515 19.816 59.387 20.328C59.2803 20.8187 59.1523 21.3413 59.003 21.896C58.875 22.4293 58.7577 22.8453 58.651 23.144C58.5443 23.4213 58.427 23.6773 58.299 23.912C58.0643 24.36 57.7337 24.584 57.307 24.584C56.8803 24.584 56.4537 24.168 56.027 23.336C55.6217 22.4827 55.419 21.5973 55.419 20.68C55.419 18.4187 56.0697 15.4213 57.371 11.688C57.0083 12.1573 56.4857 12.8507 55.803 13.768C55.1203 14.664 54.6083 15.3253 54.267 15.752C53.947 16.1573 53.5417 16.6373 53.051 17.192C52.1763 18.152 51.323 18.632 50.491 18.632C49.3817 18.632 48.5923 18.1947 48.123 17.32C47.8883 16.872 47.5683 15.8693 47.163 14.312C46.779 12.7333 46.5017 11.6453 46.331 11.048C46.0537 13.2453 45.6803 15.24 45.211 17.032C44.7417 18.824 44.4323 19.9973 44.283 20.552C44.1337 21.1067 43.931 21.7787 43.675 22.568C43.2483 23.912 42.8643 24.584 42.523 24.584C42.139 24.584 41.6057 24.0827 40.923 23.08C40.2617 22.056 39.931 21.256 39.931 20.68C39.931 20.104 40.5497 17.224 41.787 12.04C43.0457 6.856 43.675 3.58133 43.675 2.216C43.675 1.512 43.9843 1.16 44.603 1.16ZM79.3505 12.584C80.2038 12.584 80.8118 12.6693 81.1745 12.84C81.5585 12.9893 81.7505 13.2773 81.7505 13.704C81.7505 14.28 80.8225 14.8667 78.9665 15.464C79.0092 17.0853 79.0305 18.6427 79.0305 20.136C79.0305 21.608 78.9132 22.7173 78.6785 23.464C78.4438 24.1893 78.0705 24.552 77.5585 24.552C77.0465 24.552 76.6412 24.296 76.3425 23.784C76.0652 23.2507 75.8305 22.3867 75.6385 21.192C75.4678 19.9973 75.2865 18.4187 75.0945 16.456C72.9185 16.9467 71.3505 17.3413 70.3905 17.64C68.7265 22.248 67.6172 24.552 67.0625 24.552C66.6145 24.552 66.0172 24.2533 65.2705 23.656C64.5452 23.0587 64.1825 22.44 64.1825 21.8C64.1825 21.4373 64.5985 20.3067 65.4305 18.408C65.0678 18.1733 64.7478 17.8427 64.4705 17.416C64.2145 16.968 64.0865 16.5413 64.0865 16.136C64.0865 15.432 65.1425 14.76 67.2545 14.12C67.4252 13.6933 67.5958 13.2133 67.7665 12.68C67.9585 12.1253 68.4172 10.8453 69.1425 8.84C69.8892 6.83467 70.4758 5.16 70.9025 3.816C71.0945 3.176 71.7558 2.57867 72.8865 2.024C74.0385 1.46933 74.9345 1.192 75.5745 1.192C76.3212 1.192 76.9825 2.22667 77.5585 4.296C78.1558 6.36533 78.5718 9.128 78.8065 12.584H79.3505ZM71.9585 13.128C72.5985 13.0427 73.5265 12.936 74.7425 12.808C74.6785 12.1893 74.5718 11.1333 74.4225 9.64C74.2945 8.14667 74.1985 7.06933 74.1345 6.408C73.7718 7.60267 73.0465 9.84267 71.9585 13.128ZM99.9868 0.999998C100.605 0.999998 101.288 1.32 102.035 1.96C102.803 2.6 103.187 3.12267 103.187 3.528C103.187 4.872 102.867 7.208 102.227 10.536C101.608 13.8427 100.808 17.0107 99.8268 20.04C98.8454 23.0693 97.9601 24.584 97.1708 24.584C96.8508 24.584 96.4348 24.4133 95.9228 24.072C95.4108 23.7093 95.0694 23.2933 94.8988 22.824C94.7281 22.3333 94.3974 21.3307 93.9068 19.816C92.7761 16.3387 91.7094 13.4587 90.7068 11.176C90.5574 11.816 90.3548 12.7227 90.0988 13.896C89.8641 15.0693 89.6721 15.9973 89.5228 16.68C89.3734 17.3413 89.1921 18.152 88.9788 19.112C88.7654 20.0507 88.5734 20.7973 88.4028 21.352C88.2534 21.9067 88.0828 22.4613 87.8908 23.016C87.5494 24.0613 87.2294 24.584 86.9308 24.584C86.5041 24.584 85.9494 24.2 85.2668 23.432C84.5841 22.6427 84.2428 21.9707 84.2428 21.416C84.2428 20.84 84.8508 17.864 86.0668 12.488C87.3041 7.112 87.9761 3.74133 88.0828 2.376C88.1468 1.56533 88.3921 1.16 88.8188 1.16C89.1814 1.16 89.6401 1.37333 90.1948 1.8C90.7708 2.22667 91.2614 2.74933 91.6667 3.368C92.0934 3.96533 92.8508 5.93867 93.9388 9.288C95.0268 12.6373 95.8908 15.0373 96.5308 16.488C97.3628 14.0133 98.1308 10.28 98.8348 5.288C99.1121 3.304 99.2934 2.09867 99.3787 1.672C99.4641 1.224 99.6668 0.999998 99.9868 0.999998ZM123.655 11.144C124.785 11.144 126.001 11.0907 127.303 10.984C128.604 10.856 129.404 10.792 129.703 10.792C130.023 10.792 130.268 10.8667 130.439 11.016C130.631 11.1653 130.727 11.3467 130.727 11.56C130.727 12.4987 129.841 13.2453 128.071 13.8C126.3 14.3547 124.412 14.6747 122.407 14.76C121.575 17.3413 121.159 18.9733 121.159 19.656C121.159 20.0187 121.34 20.2 121.703 20.2C124.135 20.2 126.641 19.88 129.223 19.24C130.097 19.0053 130.599 18.888 130.727 18.888C131.132 18.888 131.335 19.176 131.335 19.752C131.335 20.52 130.769 21.2667 129.639 21.992C128.508 22.7173 127.089 23.2933 125.383 23.72C123.676 24.1467 122.001 24.36 120.359 24.36C119.377 24.36 118.492 23.9973 117.703 23.272C116.913 22.5253 116.519 21.6613 116.519 20.68C116.519 19.6773 117.063 17.1813 118.151 13.192C119.26 9.20267 119.847 6.19467 119.911 4.168C119.889 4.104 119.879 3.976 119.879 3.784C119.879 3.48533 119.921 3.25067 120.007 3.08C120.241 2.48266 120.892 2.10933 121.959 1.96C123.025 1.78933 124.945 1.704 127.719 1.704C132.327 1.704 134.631 2.216 134.631 3.24C134.631 3.90133 134.065 4.36 132.935 4.616C132.167 4.78667 131.111 4.94667 129.767 5.096C127.697 5.33067 125.852 5.672 124.231 6.12C124.231 7.57067 123.975 9.24533 123.463 11.144H123.655ZM150.432 1.448C150.837 1.448 151.381 1.832 152.064 2.6C152.768 3.34667 153.12 3.98667 153.12 4.52C153.12 4.75467 153.013 4.95733 152.8 5.128C152.586 5.29867 152.288 5.50133 151.904 5.736C151.541 5.97067 151.232 6.248 150.976 6.568C148.373 9.78933 146.432 12.2427 145.152 13.928C145.664 14.8453 146.389 16.104 147.328 17.704C148.266 19.304 148.938 20.4987 149.344 21.288C149.749 22.056 149.952 22.6533 149.952 23.08C149.952 23.4853 149.781 23.848 149.44 24.168C149.12 24.4667 148.746 24.616 148.32 24.616C147.189 24.616 145.248 22.312 142.496 17.704C141.088 19.7947 139.861 21.4693 138.816 22.728C137.77 23.9653 136.917 24.584 136.256 24.584C135.616 24.584 134.965 24.3493 134.304 23.88C133.642 23.4107 133.312 22.9627 133.312 22.536C133.312 22.3013 133.365 22.1307 133.472 22.024C133.77 21.7253 133.962 21.512 134.048 21.384C135.882 19.2933 137.92 16.648 140.16 13.448C138.944 11.1013 137.941 8.91467 137.152 6.888C136.362 4.84 135.968 3.368 135.968 2.472C135.968 1.55467 136.16 1.096 136.544 1.096C137.44 1.096 138.378 1.288 139.36 1.672C140.362 2.03467 140.864 2.46133 140.864 2.952C140.864 4.488 141.525 6.67467 142.848 9.512C144.96 6.22667 146.538 4.06133 147.584 3.016C148.629 1.97066 149.578 1.448 150.432 1.448ZM155.551 24.424C155.06 24.424 154.473 24.0187 153.791 23.208C153.108 22.376 152.767 21.704 152.767 21.192C152.767 20.68 153.023 19.624 153.535 18.024C155.113 13.1173 155.956 8.81867 156.062 5.128C155.337 4.36 154.975 3.752 154.975 3.304C154.975 2.6 155.807 1.93867 157.471 1.32C159.156 0.679999 160.756 0.359999 162.271 0.359999C164.831 0.359999 166.847 0.957332 168.319 2.152C169.812 3.34667 170.559 4.872 170.559 6.728C170.559 9.096 169.396 11.24 167.071 13.16C164.767 15.08 161.855 16.392 158.335 17.096C157.332 20.7013 156.671 22.824 156.351 23.464C156.052 24.104 155.785 24.424 155.551 24.424ZM166.015 6.824C166.015 6.14133 165.769 5.58667 165.279 5.16C164.788 4.712 164.127 4.488 163.295 4.488C162.463 4.488 161.311 4.88267 159.839 5.672C160.265 6.41867 160.479 7.09067 160.479 7.688C160.479 8.86133 160.169 10.6 159.551 12.904C161.471 12.136 163.028 11.2187 164.223 10.152C165.417 9.064 166.015 7.95467 166.015 6.824ZM177.561 11.144C178.692 11.144 179.908 11.0907 181.209 10.984C182.51 10.856 183.31 10.792 183.609 10.792C183.929 10.792 184.174 10.8667 184.345 11.016C184.537 11.1653 184.633 11.3467 184.633 11.56C184.633 12.4987 183.748 13.2453 181.977 13.8C180.206 14.3547 178.318 14.6747 176.313 14.76C175.481 17.3413 175.065 18.9733 175.065 19.656C175.065 20.0187 175.246 20.2 175.609 20.2C178.041 20.2 180.548 19.88 183.129 19.24C184.004 19.0053 184.505 18.888 184.633 18.888C185.038 18.888 185.241 19.176 185.241 19.752C185.241 20.52 184.676 21.2667 183.545 21.992C182.414 22.7173 180.996 23.2933 179.289 23.72C177.582 24.1467 175.908 24.36 174.265 24.36C173.284 24.36 172.398 23.9973 171.609 23.272C170.82 22.5253 170.425 21.6613 170.425 20.68C170.425 19.6773 170.969 17.1813 172.057 13.192C173.166 9.20267 173.753 6.19467 173.817 4.168C173.796 4.104 173.785 3.976 173.785 3.784C173.785 3.48533 173.828 3.25067 173.913 3.08C174.148 2.48266 174.798 2.10933 175.865 1.96C176.932 1.78933 178.852 1.704 181.625 1.704C186.233 1.704 188.537 2.216 188.537 3.24C188.537 3.90133 187.972 4.36 186.841 4.616C186.073 4.78667 185.017 4.94667 183.673 5.096C181.604 5.33067 179.758 5.672 178.137 6.12C178.137 7.57067 177.881 9.24533 177.369 11.144H177.561ZM205.394 23.432C205.394 24.3067 204.786 24.744 203.57 24.744C201.906 24.744 200.157 23.88 198.322 22.152C196.509 20.424 195.218 18.6213 194.45 16.744C194.109 17.768 193.874 18.4613 193.746 18.824C193.618 19.1867 193.426 19.7627 193.17 20.552C192.914 21.3413 192.711 21.928 192.562 22.312C192.434 22.696 192.285 23.1013 192.114 23.528C191.794 24.3387 191.485 24.744 191.186 24.744C190.695 24.744 190.098 24.3387 189.394 23.528C188.711 22.696 188.37 22.024 188.37 21.512C188.37 21 188.615 20.0507 189.106 18.664C190.557 14.4187 191.389 10.5467 191.602 7.048C191.197 6.728 190.834 6.28 190.514 5.704C190.194 5.128 190.034 4.648 190.034 4.264C190.034 3.624 190.855 2.952 192.498 2.248C194.162 1.544 196.071 1.192 198.226 1.192C200.402 1.192 202.215 1.704 203.666 2.728C205.117 3.752 205.842 5.08533 205.842 6.728C205.842 7.944 205.479 9.11733 204.754 10.248C204.05 11.3573 203.271 12.232 202.418 12.872C201.586 13.4907 200.807 14.056 200.082 14.568C199.378 15.08 199.026 15.4107 199.026 15.56C199.026 16.072 199.197 16.5627 199.538 17.032C199.879 17.48 200.359 18.0133 200.978 18.632C201.597 19.2293 202.13 19.7413 202.578 20.168C203.026 20.5733 203.389 20.9147 203.666 21.192C203.965 21.4693 204.253 21.7573 204.53 22.056C205.106 22.6107 205.394 23.0693 205.394 23.432ZM200.914 7.048C200.914 6.152 200.039 5.704 198.29 5.704C197.458 5.704 196.466 5.93867 195.314 6.408C195.847 7.21867 196.114 7.96533 196.114 8.648C196.114 9.88533 195.943 11.2507 195.602 12.744C195.837 12.5733 196.274 12.2747 196.914 11.848C197.554 11.4 198.045 11.048 198.386 10.792C198.749 10.5147 199.154 10.1627 199.602 9.736C200.477 8.904 200.914 8.008 200.914 7.048ZM214.309 5.704C212.005 5.832 210.746 5.896 210.533 5.896C210.021 5.896 209.509 5.58667 208.997 4.968C208.485 4.328 208.229 3.66667 208.229 2.984C208.229 1.93867 211.269 1.416 217.349 1.416C220.463 1.416 222.757 1.736 224.229 2.376C225.701 3.016 226.437 3.79467 226.437 4.712C226.437 4.98933 226.277 5.256 225.957 5.512C225.637 5.74667 225.231 5.864 224.741 5.864C224.25 5.864 223.354 5.832 222.053 5.768C220.751 5.704 219.567 5.66133 218.501 5.64C218.586 5.896 218.629 6.19467 218.629 6.536C218.629 6.87733 218.501 7.54933 218.245 8.552C218.01 9.55467 217.669 10.952 217.221 12.744C216.773 14.5147 216.282 16.6693 215.749 19.208C215.215 21.7253 214.842 23.2293 214.629 23.72C214.437 24.1893 214.245 24.424 214.053 24.424C213.605 24.424 213.039 24.0187 212.357 23.208C211.695 22.376 211.365 21.704 211.365 21.192C211.365 20.68 211.802 18.568 212.677 14.856C213.551 11.1227 214.095 8.072 214.309 5.704ZM239.779 14.28C239.779 14.8347 239.128 15.2933 237.827 15.656C236.803 15.9547 235.63 16.2427 234.307 16.52C232.984 16.776 231.875 17.0213 230.979 17.256C229.102 17.704 227.95 17.928 227.523 17.928C227.096 17.928 226.648 17.64 226.179 17.064C225.71 16.4667 225.475 15.9013 225.475 15.368C225.475 14.7707 226.712 14.2587 229.187 13.832C231.683 13.4053 234.403 13.192 237.347 13.192C238.968 13.192 239.779 13.5547 239.779 14.28ZM247.851 0.679998C248.384 0.679998 249.035 1.032 249.803 1.736C250.571 2.44 250.955 3.16533 250.955 3.912C250.955 5.96 249.899 9.928 247.787 15.816C247.062 17.8853 246.699 19.3253 246.699 20.136C246.699 20.2427 246.72 20.3067 246.763 20.328C246.806 20.3493 247.2 20.36 247.947 20.36C248.694 20.36 249.718 20.2533 251.019 20.04C252.342 19.8053 253.408 19.5813 254.219 19.368C255.051 19.1547 255.542 19.048 255.691 19.048C256.224 19.048 256.491 19.3893 256.491 20.072C256.491 21.416 255.467 22.504 253.419 23.336C251.392 24.1467 249.035 24.552 246.347 24.552C245.302 24.552 244.342 24.168 243.467 23.4C242.614 22.6107 242.187 21.7467 242.187 20.808C242.187 19.8693 242.976 16.84 244.555 11.72C246.134 6.57867 246.923 3.25067 246.923 1.736C246.923 1.032 247.232 0.679998 247.851 0.679998ZM266.28 11.144C267.41 11.144 268.626 11.0907 269.928 10.984C271.229 10.856 272.029 10.792 272.328 10.792C272.648 10.792 272.893 10.8667 273.064 11.016C273.256 11.1653 273.352 11.3467 273.352 11.56C273.352 12.4987 272.466 13.2453 270.696 13.8C268.925 14.3547 267.037 14.6747 265.032 14.76C264.2 17.3413 263.784 18.9733 263.784 19.656C263.784 20.0187 263.965 20.2 264.328 20.2C266.76 20.2 269.266 19.88 271.848 19.24C272.722 19.0053 273.224 18.888 273.352 18.888C273.757 18.888 273.96 19.176 273.96 19.752C273.96 20.52 273.394 21.2667 272.264 21.992C271.133 22.7173 269.714 23.2933 268.008 23.72C266.301 24.1467 264.626 24.36 262.984 24.36C262.002 24.36 261.117 23.9973 260.328 23.272C259.538 22.5253 259.144 21.6613 259.144 20.68C259.144 19.6773 259.688 17.1813 260.776 13.192C261.885 9.20267 262.472 6.19467 262.536 4.168C262.514 4.104 262.504 3.976 262.504 3.784C262.504 3.48533 262.546 3.25067 262.632 3.08C262.866 2.48266 263.517 2.10933 264.584 1.96C265.65 1.78933 267.57 1.704 270.344 1.704C274.952 1.704 277.256 2.216 277.256 3.24C277.256 3.90133 276.69 4.36 275.56 4.616C274.792 4.78667 273.736 4.94667 272.392 5.096C270.322 5.33067 268.477 5.672 266.856 6.12C266.856 7.57067 266.6 9.24533 266.088 11.144H266.28ZM292.353 1.16C292.95 1.16 293.547 1.384 294.145 1.832C294.763 2.25867 295.073 2.67466 295.073 3.08C295.073 3.48533 294.987 3.93333 294.817 4.424C294.667 4.91467 294.411 5.53333 294.049 6.28C293.707 7.00533 293.355 7.72 292.993 8.424C292.651 9.10667 292.193 10.0133 291.617 11.144C291.041 12.2533 290.539 13.2453 290.113 14.12C289.686 14.9947 289.206 16.0293 288.673 17.224C288.161 18.4187 287.734 19.4 287.393 20.168C287.051 20.9147 286.689 21.6507 286.305 22.376C285.558 23.8267 284.833 24.552 284.129 24.552C283.809 24.552 283.361 24.3173 282.785 23.848C282.23 23.3787 281.857 22.9093 281.665 22.44C281.046 20.7973 280.225 17.3733 279.201 12.168C278.177 6.96267 277.665 3.82667 277.665 2.76C277.665 1.69333 277.953 1.16 278.529 1.16C279.254 1.16 280.001 1.46933 280.769 2.088C281.537 2.70667 282.134 3.528 282.561 4.552C282.731 4.97867 282.891 5.88533 283.041 7.272C283.211 8.63733 283.403 10.344 283.617 12.392C283.851 14.4187 284.097 16.1573 284.353 17.608C286.507 11.7627 288.203 7.56 289.441 5C290.699 2.44 291.67 1.16 292.353 1.16ZM300.936 11.144C302.067 11.144 303.283 11.0907 304.584 10.984C305.885 10.856 306.685 10.792 306.984 10.792C307.304 10.792 307.549 10.8667 307.72 11.016C307.912 11.1653 308.008 11.3467 308.008 11.56C308.008 12.4987 307.123 13.2453 305.352 13.8C303.581 14.3547 301.693 14.6747 299.688 14.76C298.856 17.3413 298.44 18.9733 298.44 19.656C298.44 20.0187 298.621 20.2 298.984 20.2C301.416 20.2 303.923 19.88 306.504 19.24C307.379 19.0053 307.88 18.888 308.008 18.888C308.413 18.888 308.616 19.176 308.616 19.752C308.616 20.52 308.051 21.2667 306.92 21.992C305.789 22.7173 304.371 23.2933 302.664 23.72C300.957 24.1467 299.283 24.36 297.64 24.36C296.659 24.36 295.773 23.9973 294.984 23.272C294.195 22.5253 293.8 21.6613 293.8 20.68C293.8 19.6773 294.344 17.1813 295.432 13.192C296.541 9.20267 297.128 6.19467 297.192 4.168C297.171 4.104 297.16 3.976 297.16 3.784C297.16 3.48533 297.203 3.25067 297.288 3.08C297.523 2.48266 298.173 2.10933 299.24 1.96C300.307 1.78933 302.227 1.704 305 1.704C309.608 1.704 311.912 2.216 311.912 3.24C311.912 3.90133 311.347 4.36 310.216 4.616C309.448 4.78667 308.392 4.94667 307.048 5.096C304.979 5.33067 303.133 5.672 301.512 6.12C301.512 7.57067 301.256 9.24533 300.744 11.144H300.936ZM317.601 0.679998C318.134 0.679998 318.785 1.032 319.553 1.736C320.321 2.44 320.705 3.16533 320.705 3.912C320.705 5.96 319.649 9.928 317.537 15.816C316.812 17.8853 316.449 19.3253 316.449 20.136C316.449 20.2427 316.47 20.3067 316.513 20.328C316.556 20.3493 316.95 20.36 317.697 20.36C318.444 20.36 319.468 20.2533 320.769 20.04C322.092 19.8053 323.158 19.5813 323.969 19.368C324.801 19.1547 325.292 19.048 325.441 19.048C325.974 19.048 326.241 19.3893 326.241 20.072C326.241 21.416 325.217 22.504 323.169 23.336C321.142 24.1467 318.785 24.552 316.097 24.552C315.052 24.552 314.092 24.168 313.217 23.4C312.364 22.6107 311.937 21.7467 311.937 20.808C311.937 19.8693 312.726 16.84 314.305 11.72C315.884 6.57867 316.673 3.25067 316.673 1.736C316.673 1.032 316.982 0.679998 317.601 0.679998ZM354.454 1.096C355.052 1.096 355.702 1.62933 356.406 2.696C357.11 3.74133 357.462 4.60533 357.462 5.288C357.462 5.97066 357.324 6.312 357.046 6.312C356.918 6.312 356.641 6.26933 356.214 6.184C355.809 6.09867 355.457 6.056 355.158 6.056C354.092 6.056 352.844 6.73867 351.414 8.104C349.985 9.46933 348.758 11.1013 347.734 13C346.732 14.8987 346.23 16.5413 346.23 17.928C346.23 18.6107 346.337 19.112 346.55 19.432C346.764 19.7307 347.148 19.88 347.702 19.88C349.174 19.88 350.668 19.656 352.182 19.208C353.697 18.76 354.945 18.312 355.926 17.864C356.908 17.3947 357.462 17.16 357.59 17.16C357.74 17.16 357.878 17.288 358.006 17.544C358.156 17.7787 358.23 18.0667 358.23 18.408C358.23 19.1333 357.654 19.9973 356.502 21C355.35 21.9813 353.953 22.824 352.31 23.528C350.689 24.232 349.217 24.584 347.894 24.584C346.572 24.584 345.174 23.784 343.702 22.184C342.252 20.584 341.526 19.0587 341.526 17.608C341.526 15.5813 342.177 13.2773 343.478 10.696C344.78 8.09333 346.454 5.84267 348.502 3.944C350.572 2.04533 352.556 1.096 354.454 1.096ZM370.428 19.08C371.666 17.9707 372.743 16.584 373.66 14.92C374.578 13.2347 375.036 11.624 375.036 10.088C375.036 8.552 374.844 7.368 374.46 6.536C374.076 5.704 373.543 5.288 372.86 5.288C372.178 5.288 371.282 5.90667 370.172 7.144C369.084 8.36 368.092 9.96 367.196 11.944C366.322 13.928 365.884 15.8267 365.884 17.64C365.884 18.5573 366.012 19.304 366.268 19.88C366.524 20.4347 366.844 20.712 367.228 20.712C368.124 20.712 369.191 20.168 370.428 19.08ZM367.26 24.584C365.682 24.584 364.274 23.816 363.036 22.28C361.799 20.7227 361.18 19.176 361.18 17.64C361.18 15.6773 361.554 13.672 362.3 11.624C363.047 9.55467 363.975 7.77333 365.084 6.28C366.215 4.76533 367.452 3.528 368.796 2.568C370.14 1.58667 371.378 1.096 372.508 1.096C374.578 1.096 376.274 1.98133 377.596 3.752C378.919 5.50133 379.58 7.47467 379.58 9.672C379.58 11.8693 379.026 14.0987 377.916 16.36C376.807 18.6 375.271 20.5307 373.308 22.152C371.367 23.7733 369.351 24.584 367.26 24.584ZM396.737 0.999998C397.355 0.999998 398.038 1.32 398.785 1.96C399.553 2.6 399.937 3.12267 399.937 3.528C399.937 4.872 399.617 7.208 398.977 10.536C398.358 13.8427 397.558 17.0107 396.577 20.04C395.595 23.0693 394.71 24.584 393.921 24.584C393.601 24.584 393.185 24.4133 392.673 24.072C392.161 23.7093 391.819 23.2933 391.649 22.824C391.478 22.3333 391.147 21.3307 390.657 19.816C389.526 16.3387 388.459 13.4587 387.457 11.176C387.307 11.816 387.105 12.7227 386.849 13.896C386.614 15.0693 386.422 15.9973 386.273 16.68C386.123 17.3413 385.942 18.152 385.729 19.112C385.515 20.0507 385.323 20.7973 385.153 21.352C385.003 21.9067 384.833 22.4613 384.641 23.016C384.299 24.0613 383.979 24.584 383.681 24.584C383.254 24.584 382.699 24.2 382.017 23.432C381.334 22.6427 380.993 21.9707 380.993 21.416C380.993 20.84 381.601 17.864 382.817 12.488C384.054 7.112 384.726 3.74133 384.833 2.376C384.897 1.56533 385.142 1.16 385.569 1.16C385.931 1.16 386.39 1.37333 386.945 1.8C387.521 2.22667 388.011 2.74933 388.417 3.368C388.843 3.96533 389.601 5.93867 390.689 9.288C391.777 12.6373 392.641 15.0373 393.281 16.488C394.113 14.0133 394.881 10.28 395.585 5.288C395.862 3.304 396.043 2.09867 396.129 1.672C396.214 1.224 396.417 0.999998 396.737 0.999998ZM407.996 5.704C405.692 5.832 404.434 5.896 404.22 5.896C403.708 5.896 403.196 5.58667 402.684 4.968C402.172 4.328 401.916 3.66667 401.916 2.984C401.916 1.93867 404.956 1.416 411.036 1.416C414.151 1.416 416.444 1.736 417.916 2.376C419.388 3.016 420.124 3.79467 420.124 4.712C420.124 4.98933 419.964 5.256 419.644 5.512C419.324 5.74667 418.919 5.864 418.428 5.864C417.938 5.864 417.042 5.832 415.74 5.768C414.439 5.704 413.255 5.66133 412.188 5.64C412.274 5.896 412.316 6.19467 412.316 6.536C412.316 6.87733 412.188 7.54933 411.932 8.552C411.698 9.55467 411.356 10.952 410.908 12.744C410.46 14.5147 409.97 16.6693 409.436 19.208C408.903 21.7253 408.53 23.2293 408.316 23.72C408.124 24.1893 407.932 24.424 407.74 24.424C407.292 24.424 406.727 24.0187 406.044 23.208C405.383 22.376 405.052 21.704 405.052 21.192C405.052 20.68 405.49 18.568 406.364 14.856C407.239 11.1227 407.783 8.072 407.996 5.704ZM425.499 11.144C426.629 11.144 427.845 11.0907 429.147 10.984C430.448 10.856 431.248 10.792 431.547 10.792C431.867 10.792 432.112 10.8667 432.283 11.016C432.475 11.1653 432.571 11.3467 432.571 11.56C432.571 12.4987 431.685 13.2453 429.915 13.8C428.144 14.3547 426.256 14.6747 424.251 14.76C423.419 17.3413 423.003 18.9733 423.003 19.656C423.003 20.0187 423.184 20.2 423.547 20.2C425.979 20.2 428.485 19.88 431.067 19.24C431.941 19.0053 432.443 18.888 432.571 18.888C432.976 18.888 433.179 19.176 433.179 19.752C433.179 20.52 432.613 21.2667 431.483 21.992C430.352 22.7173 428.933 23.2933 427.227 23.72C425.52 24.1467 423.845 24.36 422.203 24.36C421.221 24.36 420.336 23.9973 419.547 23.272C418.757 22.5253 418.363 21.6613 418.363 20.68C418.363 19.6773 418.907 17.1813 419.995 13.192C421.104 9.20267 421.691 6.19467 421.755 4.168C421.733 4.104 421.723 3.976 421.723 3.784C421.723 3.48533 421.765 3.25067 421.851 3.08C422.085 2.48266 422.736 2.10933 423.803 1.96C424.869 1.78933 426.789 1.704 429.563 1.704C434.171 1.704 436.475 2.216 436.475 3.24C436.475 3.90133 435.909 4.36 434.779 4.616C434.011 4.78667 432.955 4.94667 431.611 5.096C429.541 5.33067 427.696 5.672 426.075 6.12C426.075 7.57067 425.819 9.24533 425.307 11.144H425.499ZM451.956 0.999998C452.574 0.999998 453.257 1.32 454.003 1.96C454.772 2.6 455.156 3.12267 455.156 3.528C455.156 4.872 454.836 7.208 454.196 10.536C453.577 13.8427 452.777 17.0107 451.796 20.04C450.814 23.0693 449.929 24.584 449.14 24.584C448.82 24.584 448.404 24.4133 447.892 24.072C447.38 23.7093 447.038 23.2933 446.868 22.824C446.697 22.3333 446.366 21.3307 445.876 19.816C444.745 16.3387 443.678 13.4587 442.676 11.176C442.526 11.816 442.324 12.7227 442.068 13.896C441.833 15.0693 441.641 15.9973 441.492 16.68C441.342 17.3413 441.161 18.152 440.948 19.112C440.734 20.0507 440.542 20.7973 440.372 21.352C440.222 21.9067 440.052 22.4613 439.86 23.016C439.518 24.0613 439.198 24.584 438.9 24.584C438.473 24.584 437.918 24.2 437.236 23.432C436.553 22.6427 436.212 21.9707 436.212 21.416C436.212 20.84 436.82 17.864 438.036 12.488C439.273 7.112 439.945 3.74133 440.052 2.376C440.116 1.56533 440.361 1.16 440.788 1.16C441.15 1.16 441.609 1.37333 442.164 1.8C442.74 2.22667 443.23 2.74933 443.635 3.368C444.062 3.96533 444.82 5.93867 445.908 9.288C446.996 12.6373 447.86 15.0373 448.5 16.488C449.332 14.0133 450.1 10.28 450.804 5.288C451.081 3.304 451.262 2.09867 451.347 1.672C451.433 1.224 451.636 0.999998 451.956 0.999998ZM463.215 5.704C460.911 5.832 459.652 5.896 459.439 5.896C458.927 5.896 458.415 5.58667 457.903 4.968C457.391 4.328 457.135 3.66667 457.135 2.984C457.135 1.93867 460.175 1.416 466.255 1.416C469.37 1.416 471.663 1.736 473.135 2.376C474.607 3.016 475.343 3.79467 475.343 4.712C475.343 4.98933 475.183 5.256 474.863 5.512C474.543 5.74667 474.138 5.864 473.647 5.864C473.156 5.864 472.26 5.832 470.959 5.768C469.658 5.704 468.474 5.66133 467.407 5.64C467.492 5.896 467.535 6.19467 467.535 6.536C467.535 6.87733 467.407 7.54933 467.151 8.552C466.916 9.55467 466.575 10.952 466.127 12.744C465.679 14.5147 465.188 16.6693 464.655 19.208C464.122 21.7253 463.748 23.2293 463.535 23.72C463.343 24.1893 463.151 24.424 462.959 24.424C462.511 24.424 461.946 24.0187 461.263 23.208C460.602 22.376 460.271 21.704 460.271 21.192C460.271 20.68 460.708 18.568 461.583 14.856C462.458 11.1227 463.002 8.072 463.215 5.704ZM90.0835 75.584C89.6568 75.584 89.0382 75.2533 88.2275 74.592C87.4382 73.9093 87.0435 73.2373 87.0435 72.576C87.0435 71.0187 87.2675 68.3307 87.7155 64.512C88.1635 60.6933 88.3875 57.024 88.3875 53.504C88.3875 52.608 88.6648 52.16 89.2195 52.16C89.9875 52.16 90.9048 52.5867 91.9715 53.44C93.0595 54.2933 93.6035 55.1467 93.6035 56C93.6035 56.2987 93.2515 58.1227 92.5475 61.472C91.8435 64.8 91.4382 67.4773 91.3315 69.504C92.3555 67.4347 93.5608 65.7067 94.9475 64.32C96.3555 62.9333 97.5075 62.24 98.4035 62.24C99.0435 62.24 99.4595 63.6587 99.6515 66.496C99.7368 67.5627 99.9075 68.544 100.164 69.44C100.42 70.3147 100.772 70.752 101.22 70.752C102.052 70.752 102.788 69.8667 103.428 68.096C104.089 66.304 104.42 64.4587 104.42 62.56C104.42 58.4427 103.289 56.384 101.028 56.384C100.366 56.384 99.7475 56.0427 99.1715 55.36C98.6168 54.6773 98.3395 54.0693 98.3395 53.536C98.3395 52.576 98.9262 52.096 100.1 52.096C101.678 52.096 103.054 52.3947 104.228 52.992C105.422 53.568 106.35 54.368 107.012 55.392C108.334 57.4187 108.996 59.9147 108.996 62.88C108.996 64.8853 108.644 66.8693 107.94 68.832C107.236 70.7733 106.254 72.384 104.996 73.664C103.758 74.944 102.436 75.584 101.028 75.584C98.4248 75.584 96.9422 73.376 96.5795 68.96L95.5875 70.368C93.2408 73.8453 91.4062 75.584 90.0835 75.584ZM115.625 72.352C116.777 71.84 117.779 70.8053 118.633 69.248C119.486 67.6907 119.913 66.2293 119.913 64.864C119.913 63.4987 119.721 62.56 119.337 62.048C118.419 62.5813 117.502 63.7013 116.585 65.408C115.689 67.1147 115.241 68.6187 115.241 69.92C115.241 71.2 115.369 72.0107 115.625 72.352ZM110.953 70.24C110.953 67.5733 111.774 65.0453 113.417 62.656C115.081 60.2667 116.723 59.072 118.345 59.072C119.966 59.072 121.331 59.648 122.441 60.8C123.55 61.9307 124.105 63.3067 124.105 64.928C124.105 66.528 123.721 68.16 122.953 69.824C122.185 71.488 121.107 72.8747 119.72 73.984C118.334 75.072 116.851 75.616 115.273 75.616C114.099 75.616 113.086 75.0933 112.233 74.048C111.379 73.0027 110.953 71.7333 110.953 70.24ZM127.466 64.512L127.274 60.896C127.274 59.7013 127.648 59.104 128.394 59.104C128.821 59.104 129.237 59.264 129.642 59.584C130.069 59.904 130.389 60.4053 130.602 61.088C131.328 60.448 132.117 59.936 132.97 59.552C133.845 59.1467 134.613 58.944 135.274 58.944C136.832 58.944 137.61 59.3173 137.61 60.064C137.61 60.448 137.536 60.736 137.386 60.928C137.258 61.0987 137.152 61.2267 137.066 61.312C137.002 61.3973 136.874 61.5147 136.682 61.664C136.512 61.792 136.384 61.888 136.298 61.952C135.808 62.272 135.456 62.496 135.242 62.624C134.282 63.2213 133.461 63.9467 132.778 64.8C132.096 65.632 131.584 66.7947 131.242 68.288C130.666 70.7413 130.101 72.576 129.546 73.792C129.013 74.9867 128.405 75.584 127.722 75.584C127.061 75.584 126.56 75.264 126.218 74.624C125.898 73.984 125.738 73.3867 125.738 72.832C125.738 72.256 125.941 71.4027 126.346 70.272C126.773 69.1413 127.061 68.1707 127.21 67.36C127.381 66.528 127.466 65.5787 127.466 64.512ZM140.276 75.616C139.785 75.616 139.167 75.2213 138.42 74.432C137.695 73.6427 137.332 73.0133 137.332 72.544C137.332 72.416 137.684 71.1467 138.388 68.736C139.113 66.3253 139.828 63.424 140.532 60.032C141.257 56.64 141.62 53.6747 141.62 51.136C141.62 50.4747 141.919 50.144 142.516 50.144C143.028 50.144 143.7 50.6133 144.532 51.552C145.385 52.4693 145.812 53.3333 145.812 54.144C145.812 55.3173 145.385 57.536 144.532 60.8C143.7 64.064 142.868 66.6347 142.036 68.512C142.313 68.1493 142.687 67.6693 143.156 67.072C143.647 66.4533 144.041 65.952 144.34 65.568C144.639 65.184 145.001 64.7147 145.428 64.16C145.876 63.6053 146.249 63.1573 146.548 62.816C146.847 62.4533 147.177 62.0587 147.54 61.632C147.903 61.184 148.212 60.832 148.468 60.576C148.745 60.2987 149.023 60.0427 149.3 59.808C149.812 59.3387 150.207 59.104 150.484 59.104C151.017 59.104 151.604 59.4667 152.244 60.192C152.884 60.896 153.204 61.5147 153.204 62.048C153.204 62.2613 152.745 62.752 151.828 63.52C150.932 64.288 150.025 65.1413 149.108 66.08C148.212 67.0187 147.764 67.8613 147.764 68.608C147.764 69.3333 147.977 70.048 148.404 70.752C148.852 71.4347 149.332 71.9573 149.844 72.32C150.356 72.6827 150.825 73.056 151.252 73.44C151.7 73.8027 151.924 74.112 151.924 74.368C151.924 75.2 151.359 75.616 150.228 75.616C148.884 75.616 147.103 74.4853 144.884 72.224L144.116 71.456C142.196 74.2293 140.916 75.616 140.276 75.616ZM156.217 55.104C156.217 54.5493 156.463 53.984 156.953 53.408C157.465 52.8107 157.956 52.512 158.425 52.512C158.916 52.512 159.492 53.088 160.153 54.24C160.815 55.392 161.145 56.2347 161.145 56.768C161.145 57.28 160.975 57.6747 160.633 57.952C160.292 58.2293 159.94 58.368 159.577 58.368C158.959 58.368 158.244 57.9627 157.433 57.152C156.623 56.3413 156.217 55.6587 156.217 55.104ZM156.697 59.104C157.444 59.104 158.105 59.5307 158.681 60.384C159.279 61.2373 159.577 62.0587 159.577 62.848C159.577 63.2533 159.204 64.7147 158.457 67.232C157.732 69.728 157.007 72.096 156.281 74.336C156.025 75.168 155.503 75.584 154.713 75.584C154.244 75.584 153.828 75.4133 153.465 75.072C153.124 74.7093 152.953 74.2507 152.953 73.696C152.953 73.12 153.22 71.712 153.753 69.472C154.308 67.2107 154.724 65.2907 155.001 63.712C155.3 62.112 155.567 60.9493 155.801 60.224C156.057 59.4773 156.356 59.104 156.697 59.104ZM173.17 59.104C174.279 59.104 175.25 59.6053 176.082 60.608C176.935 61.5893 177.362 62.6453 177.362 63.776C177.362 65.5893 177.063 67.488 176.466 69.472C175.89 71.4347 175.25 72.9493 174.546 74.016C173.863 75.0827 173.159 75.616 172.434 75.616C171.73 75.616 171.378 75.1147 171.378 74.112C171.378 73.344 171.73 71.7973 172.434 69.472C172.967 67.552 173.234 66.176 173.234 65.344C173.234 64.512 173.127 64.096 172.914 64.096C172.636 64.096 172.359 64.2347 172.082 64.512C171.826 64.7893 171.612 65.0347 171.442 65.248C171.271 65.4613 171.068 65.7387 170.834 66.08C170.62 66.4 170.428 66.6987 170.258 66.976C170.108 67.232 169.906 67.5733 169.65 68C169.415 68.4053 169.223 68.7467 169.074 69.024C168.924 69.28 168.732 69.6213 168.498 70.048C166.514 73.76 164.956 75.616 163.826 75.616C163.378 75.616 162.812 75.232 162.13 74.464C161.447 73.6747 161.106 73.0987 161.106 72.736C161.106 72.5013 161.255 72 161.554 71.232C161.874 70.4427 162.098 69.8453 162.226 69.44C162.375 69.0133 162.492 68.5653 162.578 68.096C162.684 67.6267 162.77 67.1253 162.834 66.592C162.898 66.0373 162.94 65.6107 162.962 65.312C163.004 65.0133 163.047 64.544 163.09 63.904C163.282 61.1307 163.442 59.5947 163.57 59.296C163.719 58.9973 163.879 58.848 164.05 58.848C164.86 58.848 165.639 59.1893 166.386 59.872C167.132 60.5333 167.506 61.1413 167.506 61.696C167.506 63.0187 167.164 64.9173 166.482 67.392C167.868 64.96 169.127 62.976 170.258 61.44C171.41 59.8827 172.38 59.104 173.17 59.104ZM191.753 66.016C192.073 66.3787 192.233 66.816 192.233 67.328C192.233 67.84 192.019 68.4693 191.593 69.216C191.059 70.496 190.59 72.0853 190.185 73.984C189.779 75.8827 189.374 77.3973 188.969 78.528C188.585 79.68 188.158 80.6613 187.689 81.472C187.241 82.2827 186.622 82.9547 185.833 83.488C185.043 84.0213 184.137 84.288 183.113 84.288C181.683 84.288 180.403 83.8187 179.273 82.88C178.142 81.9413 177.576 81.1307 177.576 80.448C177.576 79.7867 177.758 79.1787 178.12 78.624C178.483 78.0907 178.814 77.824 179.113 77.824C179.433 77.824 179.731 77.9947 180.009 78.336C180.307 78.6773 180.574 79.04 180.809 79.424C181.065 79.8293 181.395 80.2027 181.801 80.544C182.206 80.8853 182.654 81.056 183.145 81.056C183.635 81.056 184.083 80.736 184.489 80.096C184.894 79.456 185.203 78.7627 185.417 78.016C185.95 76.2667 186.281 75.0187 186.409 74.272C184.958 75.168 183.774 75.616 182.857 75.616C181.961 75.616 181.086 75.1253 180.233 74.144C179.379 73.1413 178.953 72.2027 178.953 71.328C178.953 70.432 179.187 69.3227 179.657 68C180.147 66.656 180.766 65.3227 181.513 64C182.281 62.656 183.241 61.504 184.393 60.544C185.566 59.584 186.739 59.104 187.913 59.104C188.702 59.104 189.374 59.3067 189.929 59.712C190.483 60.096 190.889 60.6187 191.145 61.28C191.593 62.432 191.817 63.7333 191.817 65.184C191.817 65.3973 191.795 65.6747 191.753 66.016ZM182.889 71.168C182.889 71.4453 183.006 71.584 183.241 71.584C183.859 71.584 184.862 71.0187 186.249 69.888C187.635 68.7573 188.563 67.6373 189.033 66.528V65.92C189.033 64.5333 188.905 63.6907 188.649 63.392C188.521 63.2427 188.35 63.168 188.137 63.168C187.113 63.168 185.982 64.2453 184.745 66.4C183.507 68.5547 182.889 70.144 182.889 71.168ZM211.823 71.232C215.642 70.528 218.533 70.176 220.495 70.176C222.479 70.176 223.471 70.6027 223.471 71.456C223.471 72.2667 221.775 73.1413 218.383 74.08C215.013 75.0187 212.421 75.488 210.607 75.488C209.861 75.488 208.954 75.008 207.887 74.048C206.821 73.088 206.287 72.2347 206.287 71.488C206.287 70.9973 207.653 69.632 210.383 67.392C211.514 66.4533 212.645 65.472 213.775 64.448C214.906 63.4027 215.866 62.336 216.655 61.248C217.466 60.16 217.871 59.1893 217.871 58.336C217.871 57.4613 217.466 57.024 216.655 57.024C216.037 57.024 215.482 57.2587 214.991 57.728C214.522 58.176 214.149 58.6347 213.871 59.104C213.615 59.552 213.423 59.776 213.295 59.776C212.741 59.776 212.037 59.4773 211.183 58.88C210.351 58.2613 209.935 57.728 209.935 57.28C209.935 56.064 210.575 54.912 211.855 53.824C213.157 52.7147 214.714 52.16 216.527 52.16C218.362 52.16 219.802 52.7253 220.847 53.856C221.893 54.9653 222.415 56.384 222.415 58.112C222.415 60.4373 221.413 62.7733 219.407 65.12C217.423 67.4667 214.895 69.504 211.823 71.232ZM238.064 57.472C238.597 57.472 239.312 57.8667 240.208 58.656C241.125 59.4453 241.583 60.096 241.583 60.608C241.583 61.8453 240.826 64.8213 239.312 69.536C237.797 74.2293 236.656 76.576 235.888 76.576C235.482 76.576 235.024 76.2773 234.512 75.68C234.021 75.0613 233.776 74.5387 233.776 74.112C233.776 73.6853 233.829 73.2373 233.936 72.768C234.042 72.2773 234.149 71.8293 234.256 71.424C234.384 70.9973 234.565 70.4 234.8 69.632C235.056 68.864 235.258 68.2453 235.408 67.776C233.872 68.3093 232.357 68.576 230.864 68.576C229.392 68.576 228.24 68.1707 227.408 67.36C226.597 66.5493 226.192 65.4613 226.192 64.096C226.192 63.1147 226.714 61.6213 227.76 59.616C228.826 57.6107 230 55.808 231.28 54.208C232.56 52.608 233.466 51.808 234 51.808C234.554 51.808 235.12 52.0747 235.696 52.608C236.293 53.1413 236.592 53.6427 236.592 54.112C236.592 54.56 235.589 56.2027 233.584 59.04C231.6 61.8773 230.608 63.552 230.608 64.064C230.608 64.2773 230.65 64.416 230.736 64.48C230.821 64.544 231.013 64.576 231.312 64.576C232.037 64.576 233.082 64.288 234.448 63.712C235.813 63.136 236.549 62.8373 236.656 62.816C236.933 61.3013 237.072 59.84 237.072 58.432C237.072 57.792 237.402 57.472 238.064 57.472ZM244.461 78.56C243.992 78.56 243.458 78.1867 242.861 77.44C242.264 76.6933 241.965 76.0213 241.965 75.424C241.965 74.8267 242.573 72.9067 243.789 69.664C245.026 66.4213 246.498 62.6773 248.205 58.432C249.912 54.1653 250.914 51.6053 251.213 50.752C251.512 49.8987 251.682 49.408 251.725 49.28C251.832 48.9387 251.928 48.7573 252.013 48.736C252.205 48.6293 252.376 48.576 252.525 48.576C252.952 48.576 253.57 49.088 254.381 50.112C255.192 51.136 255.597 51.9893 255.597 52.672C255.597 53.312 255.362 54.208 254.893 55.36C254.445 56.512 254.04 57.504 253.677 58.336C252.141 61.8987 250.978 64.6613 250.189 66.624C246.904 74.5813 244.994 78.56 244.461 78.56ZM261.844 56.544L256.756 56.992C256.223 56.992 255.604 56.5333 254.9 55.616C254.218 54.6987 253.876 53.9947 253.876 53.504C253.876 52.6933 256.17 52.288 260.756 52.288C263.316 52.288 264.767 52.448 265.108 52.768C265.599 53.216 266.058 53.888 266.484 54.784C266.932 55.6587 267.156 56.4693 267.156 57.216C267.156 57.6427 266.922 58.2827 266.452 59.136C266.004 59.9893 265.652 60.6507 265.396 61.12C265.14 61.568 264.767 62.1973 264.276 63.008C263.807 63.7973 263.37 64.5333 262.964 65.216C262.58 65.8773 262.047 66.848 261.364 68.128C260.682 69.3867 260.116 70.432 259.668 71.264C259.242 72.0747 258.794 72.8747 258.324 73.664C257.428 75.2213 256.735 76 256.244 76C255.775 76 255.295 75.7013 254.804 75.104C254.335 74.5067 254.1 73.8773 254.1 73.216C254.1 72.5333 254.559 71.328 255.476 69.6C256.415 67.872 257.428 66.1653 258.516 64.48C261.482 59.9787 262.964 57.44 262.964 56.864C262.964 56.6507 262.591 56.544 261.844 56.544ZM287.651 62.912C287.48 63.488 287.224 64.2987 286.883 65.344C286.563 66.368 286.157 67.6587 285.667 69.216C285.197 70.7733 284.963 71.6053 284.963 71.712C284.963 71.7973 285.133 71.84 285.475 71.84C285.837 71.84 286.68 71.6053 288.003 71.136C289.325 70.6453 290.104 70.4 290.339 70.4C290.872 70.4 291.139 70.7627 291.139 71.488C291.139 72.2133 290.424 73.088 288.995 74.112C287.565 75.1147 286.072 75.616 284.515 75.616C283.832 75.616 283.021 75.2427 282.083 74.496C281.144 73.7493 280.674 72.992 280.674 72.224C280.674 71.584 280.995 70.24 281.635 68.192C282.296 66.1227 282.744 64.704 282.979 63.936C282.147 64.1707 281.517 64.288 281.091 64.288C280.664 64.288 280.216 64 279.747 63.424C279.277 62.8267 279.043 62.2613 279.043 61.728C279.043 61.0453 280.696 60.4693 284.003 60C284.408 58.016 284.611 56.2987 284.611 54.848C284.611 54.208 284.931 53.888 285.571 53.888C286.125 53.888 286.829 54.2293 287.683 54.912C288.557 55.5733 288.995 56.2347 288.995 56.896C288.995 57.536 288.856 58.4427 288.579 59.616C289.603 59.5733 290.381 59.552 290.915 59.552C292.515 59.552 293.315 59.9147 293.315 60.64C293.315 61.1093 292.845 61.5147 291.907 61.856C290.989 62.176 289.571 62.528 287.651 62.912ZM298.312 72.352C299.464 71.84 300.467 70.8053 301.32 69.248C302.173 67.6907 302.6 66.2293 302.6 64.864C302.6 63.4987 302.408 62.56 302.024 62.048C301.107 62.5813 300.189 63.7013 299.272 65.408C298.376 67.1147 297.928 68.6187 297.928 69.92C297.928 71.2 298.056 72.0107 298.312 72.352ZM293.64 70.24C293.64 67.5733 294.461 65.0453 296.104 62.656C297.768 60.2667 299.411 59.072 301.032 59.072C302.653 59.072 304.019 59.648 305.128 60.8C306.237 61.9307 306.792 63.3067 306.792 64.928C306.792 66.528 306.408 68.16 305.64 69.824C304.872 71.488 303.795 72.8747 302.408 73.984C301.021 75.072 299.539 75.616 297.96 75.616C296.787 75.616 295.773 75.0933 294.92 74.048C294.067 73.0027 293.64 71.7333 293.64 70.24ZM322.466 64.512L322.274 60.896C322.274 59.7013 322.648 59.104 323.394 59.104C323.821 59.104 324.237 59.264 324.642 59.584C325.069 59.904 325.389 60.4053 325.602 61.088C326.328 60.448 327.117 59.936 327.97 59.552C328.845 59.1467 329.613 58.944 330.274 58.944C331.832 58.944 332.61 59.3173 332.61 60.064C332.61 60.448 332.536 60.736 332.386 60.928C332.258 61.0987 332.152 61.2267 332.066 61.312C332.002 61.3973 331.874 61.5147 331.682 61.664C331.512 61.792 331.384 61.888 331.298 61.952C330.808 62.272 330.456 62.496 330.242 62.624C329.282 63.2213 328.461 63.9467 327.778 64.8C327.096 65.632 326.584 66.7947 326.242 68.288C325.666 70.7413 325.101 72.576 324.546 73.792C324.013 74.9867 323.405 75.584 322.722 75.584C322.061 75.584 321.56 75.264 321.218 74.624C320.898 73.984 320.738 73.3867 320.738 72.832C320.738 72.256 320.941 71.4027 321.346 70.272C321.773 69.1413 322.061 68.1707 322.21 67.36C322.381 66.528 322.466 65.5787 322.466 64.512ZM345.9 66.528C346.284 66.8693 346.476 67.1787 346.476 67.456C346.476 67.7333 346.348 68.3093 346.092 69.184C345.836 70.0587 345.665 70.7413 345.58 71.232C345.495 71.7013 345.42 72.0747 345.356 72.352C345.313 72.6293 345.281 72.8533 345.26 73.024C345.239 73.1733 345.196 73.3653 345.132 73.6C345.089 73.8347 345.047 74.0267 345.004 74.176C344.983 74.304 344.94 74.464 344.876 74.656C344.833 74.8267 344.78 74.9653 344.716 75.072C344.652 75.1573 344.577 75.2533 344.492 75.36C344.364 75.5307 344.151 75.616 343.852 75.616C343.553 75.616 343.18 75.3173 342.732 74.72C342.305 74.1227 341.985 73.3973 341.772 72.544C339.767 74.592 338.081 75.616 336.716 75.616C335.799 75.616 334.807 75.1147 333.74 74.112C332.673 73.088 332.14 72.0747 332.14 71.072C332.14 70.048 332.599 68.5973 333.516 66.72C334.433 64.8427 335.681 63.104 337.26 61.504C338.86 59.904 340.439 59.104 341.996 59.104C342.892 59.104 343.927 59.6267 345.1 60.672C346.273 61.7173 346.86 62.6773 346.86 63.552C346.86 64.4053 346.54 65.3973 345.9 66.528ZM336.588 71.584C337.441 71.584 338.572 71.008 339.98 69.856C341.409 68.6827 342.295 67.2107 342.636 65.44C342.657 65.184 342.839 65.0347 343.18 64.992C343.116 63.776 342.913 63.168 342.572 63.168C341.719 63.168 340.759 63.7227 339.692 64.832C338.647 65.9413 337.783 67.1253 337.1 68.384C336.439 69.6427 336.108 70.5707 336.108 71.168C336.108 71.3387 336.129 71.456 336.172 71.52C336.236 71.5627 336.375 71.584 336.588 71.584ZM360.389 59.104C361.498 59.104 362.469 59.6053 363.301 60.608C364.154 61.5893 364.581 62.6453 364.581 63.776C364.581 65.5893 364.282 67.488 363.685 69.472C363.109 71.4347 362.469 72.9493 361.765 74.016C361.082 75.0827 360.378 75.616 359.653 75.616C358.949 75.616 358.597 75.1147 358.597 74.112C358.597 73.344 358.949 71.7973 359.653 69.472C360.186 67.552 360.453 66.176 360.453 65.344C360.453 64.512 360.346 64.096 360.133 64.096C359.855 64.096 359.578 64.2347 359.301 64.512C359.045 64.7893 358.831 65.0347 358.661 65.248C358.49 65.4613 358.287 65.7387 358.053 66.08C357.839 66.4 357.647 66.6987 357.477 66.976C357.327 67.232 357.125 67.5733 356.869 68C356.634 68.4053 356.442 68.7467 356.293 69.024C356.143 69.28 355.951 69.6213 355.717 70.048C353.733 73.76 352.175 75.616 351.045 75.616C350.597 75.616 350.031 75.232 349.349 74.464C348.666 73.6747 348.325 73.0987 348.325 72.736C348.325 72.5013 348.474 72 348.773 71.232C349.093 70.4427 349.317 69.8453 349.445 69.44C349.594 69.0133 349.711 68.5653 349.797 68.096C349.903 67.6267 349.989 67.1253 350.053 66.592C350.117 66.0373 350.159 65.6107 350.181 65.312C350.223 65.0133 350.266 64.544 350.309 63.904C350.501 61.1307 350.661 59.5947 350.789 59.296C350.938 58.9973 351.098 58.848 351.269 58.848C352.079 58.848 352.858 59.1893 353.605 59.872C354.351 60.5333 354.725 61.1413 354.725 61.696C354.725 63.0187 354.383 64.9173 353.701 67.392C355.087 64.96 356.346 62.976 357.477 61.44C358.629 59.8827 359.599 59.104 360.389 59.104ZM369.307 75.616C368.817 75.616 368.198 75.2213 367.451 74.432C366.726 73.6427 366.363 73.0133 366.363 72.544C366.363 72.416 366.715 71.1467 367.419 68.736C368.145 66.3253 368.859 63.424 369.563 60.032C370.289 56.64 370.651 53.6747 370.651 51.136C370.651 50.4747 370.95 50.144 371.547 50.144C372.059 50.144 372.731 50.6133 373.563 51.552C374.417 52.4693 374.843 53.3333 374.843 54.144C374.843 55.3173 374.417 57.536 373.563 60.8C372.731 64.064 371.899 66.6347 371.067 68.512C371.345 68.1493 371.718 67.6693 372.187 67.072C372.678 66.4533 373.073 65.952 373.371 65.568C373.67 65.184 374.033 64.7147 374.459 64.16C374.907 63.6053 375.281 63.1573 375.579 62.816C375.878 62.4533 376.209 62.0587 376.571 61.632C376.934 61.184 377.243 60.832 377.499 60.576C377.777 60.2987 378.054 60.0427 378.331 59.808C378.843 59.3387 379.238 59.104 379.515 59.104C380.049 59.104 380.635 59.4667 381.275 60.192C381.915 60.896 382.235 61.5147 382.235 62.048C382.235 62.2613 381.777 62.752 380.859 63.52C379.963 64.288 379.057 65.1413 378.139 66.08C377.243 67.0187 376.795 67.8613 376.795 68.608C376.795 69.3333 377.009 70.048 377.435 70.752C377.883 71.4347 378.363 71.9573 378.875 72.32C379.387 72.6827 379.857 73.056 380.283 73.44C380.731 73.8027 380.955 74.112 380.955 74.368C380.955 75.2 380.39 75.616 379.259 75.616C377.915 75.616 376.134 74.4853 373.915 72.224L373.147 71.456C371.227 74.2293 369.947 75.616 369.307 75.616ZM406.361 59.904C406.489 59.3707 406.841 59.104 407.417 59.104C407.993 59.104 408.58 59.4667 409.177 60.192C409.796 60.9173 410.105 61.7387 410.105 62.656C410.105 63.1893 409.913 64.032 409.529 65.184C409.145 66.336 408.868 67.1573 408.697 67.648C408.548 68.1387 408.324 68.8107 408.025 69.664C407.726 70.496 407.449 71.2747 407.193 72C406.958 72.704 406.628 73.6533 406.201 74.848C405.796 76.0427 405.422 77.152 405.081 78.176C404.42 80.096 403.609 81.5787 402.649 82.624C401.71 83.6693 400.484 84.192 398.969 84.192C397.454 84.192 396.1 83.7867 394.905 82.976C393.71 82.1867 393.113 81.3867 393.113 80.576C393.113 80.0853 393.326 79.5413 393.753 78.944C394.201 78.3467 394.574 78.048 394.873 78.048C395.193 78.048 395.598 78.2933 396.089 78.784C396.601 79.296 397.124 79.7973 397.657 80.288C398.19 80.8 398.66 81.056 399.065 81.056C399.342 81.056 399.566 80.928 399.737 80.672C399.929 80.416 400.078 80.1813 400.185 79.968C400.313 79.776 400.441 79.4987 400.569 79.136C400.697 78.7947 400.814 78.4747 400.921 78.176C401.028 77.8773 401.156 77.4827 401.305 76.992C401.454 76.5013 401.582 76.064 401.689 75.68C402.052 74.528 402.361 73.504 402.617 72.608C401.913 73.5253 401.188 74.2613 400.441 74.816C399.694 75.3493 399.001 75.616 398.361 75.616C397.742 75.616 396.964 75.1467 396.025 74.208C395.108 73.248 394.649 72.2027 394.649 71.072C394.649 69.92 394.894 68.384 395.385 66.464C395.897 64.544 396.526 62.8373 397.273 61.344C398.02 59.8507 398.681 59.104 399.257 59.104C399.918 59.104 400.537 59.392 401.113 59.968C401.71 60.5227 402.009 61.0667 402.009 61.6C402.009 62.112 401.742 62.944 401.209 64.096C400.697 65.248 400.174 66.5067 399.641 67.872C399.108 69.2373 398.841 70.4 398.841 71.36C398.841 71.488 398.894 71.552 399.001 71.552C399.278 71.552 399.865 71.04 400.761 70.016C401.657 68.9707 402.66 67.4987 403.769 65.6C404.9 63.68 405.764 61.7813 406.361 59.904ZM415.562 72.352C416.714 71.84 417.717 70.8053 418.57 69.248C419.423 67.6907 419.85 66.2293 419.85 64.864C419.85 63.4987 419.658 62.56 419.274 62.048C418.357 62.5813 417.439 63.7013 416.522 65.408C415.626 67.1147 415.178 68.6187 415.178 69.92C415.178 71.2 415.306 72.0107 415.562 72.352ZM410.89 70.24C410.89 67.5733 411.711 65.0453 413.354 62.656C415.018 60.2667 416.661 59.072 418.282 59.072C419.903 59.072 421.269 59.648 422.378 60.8C423.487 61.9307 424.042 63.3067 424.042 64.928C424.042 66.528 423.658 68.16 422.89 69.824C422.122 71.488 421.045 72.8747 419.658 73.984C418.271 75.072 416.789 75.616 415.21 75.616C414.037 75.616 413.023 75.0933 412.17 74.048C411.317 73.0027 410.89 71.7333 410.89 70.24ZM436.876 59.904C437.046 59.3707 437.388 59.104 437.9 59.104C438.412 59.104 438.998 59.5413 439.66 60.416C440.342 61.2907 440.684 62.048 440.684 62.688C440.684 62.9227 440.193 64.4907 439.212 67.392C438.23 70.2933 437.473 72.5867 436.94 74.272C436.641 75.168 436.14 75.616 435.436 75.616C435.009 75.616 434.646 75.4667 434.348 75.168C434.07 74.848 433.932 74.3573 433.932 73.696C433.932 73.0347 434.06 72.096 434.316 70.88C432.118 74.0373 430.369 75.616 429.068 75.616C428.385 75.616 427.564 75.1787 426.604 74.304C425.644 73.408 425.164 72.544 425.164 71.712C425.164 69.664 425.74 67.0507 426.892 63.872C428.065 60.6933 429.164 59.104 430.188 59.104C430.806 59.104 431.35 59.3813 431.82 59.936C432.31 60.4907 432.556 61.0987 432.556 61.76C432.556 62.016 432.289 62.7307 431.756 63.904C430.134 67.424 429.324 69.9093 429.324 71.36C429.324 71.488 429.377 71.552 429.484 71.552C429.804 71.552 430.401 71.0507 431.276 70.048C432.172 69.024 433.164 67.5733 434.252 65.696C435.361 63.7973 436.236 61.8667 436.876 59.904ZM457.519 51.488C457.519 50.592 457.871 50.144 458.575 50.144C459.151 50.144 459.812 50.624 460.559 51.584C461.305 52.544 461.679 53.3653 461.679 54.048C461.679 54.7307 461.54 55.6907 461.263 56.928C460.985 58.1653 460.697 59.296 460.399 60.32C460.121 61.344 459.695 62.8053 459.119 64.704C458.543 66.5813 458.148 67.8933 457.935 68.64C459.321 65.824 460.783 63.5307 462.319 61.76C463.876 59.9893 465.177 59.104 466.223 59.104C466.884 59.104 467.641 59.6907 468.495 60.864C469.348 62.016 469.775 63.0613 469.775 64C469.775 64.9173 469.604 66.2613 469.263 68.032C468.921 69.8027 468.324 71.5093 467.471 73.152C466.617 74.7947 465.743 75.616 464.847 75.616C464.143 75.616 463.791 75.1147 463.791 74.112C463.791 73.3867 464.004 72.2027 464.431 70.56C465.049 68.1067 465.359 66.6133 465.359 66.08C465.359 65.5467 465.273 65.28 465.103 65.28C463.865 65.28 462.052 67.3387 459.663 71.456C458.852 72.864 458.169 73.9093 457.615 74.592C457.081 75.2747 456.569 75.616 456.079 75.616C455.588 75.616 454.991 75.2213 454.287 74.432C453.604 73.6427 453.263 73.0347 453.263 72.608C453.263 72.16 453.348 71.5093 453.519 70.656C453.711 69.8027 453.988 68.5867 454.351 67.008C454.735 65.4293 455.353 62.5707 456.207 58.432C457.081 54.272 457.519 51.9573 457.519 51.488ZM474.686 55.104C474.686 54.5493 474.931 53.984 475.422 53.408C475.934 52.8107 476.425 52.512 476.894 52.512C477.385 52.512 477.961 53.088 478.622 54.24C479.283 55.392 479.614 56.2347 479.614 56.768C479.614 57.28 479.443 57.6747 479.102 57.952C478.761 58.2293 478.409 58.368 478.046 58.368C477.427 58.368 476.713 57.9627 475.902 57.152C475.091 56.3413 474.686 55.6587 474.686 55.104ZM475.166 59.104C475.913 59.104 476.574 59.5307 477.15 60.384C477.747 61.2373 478.046 62.0587 478.046 62.848C478.046 63.2533 477.673 64.7147 476.926 67.232C476.201 69.728 475.475 72.096 474.75 74.336C474.494 75.168 473.971 75.584 473.182 75.584C472.713 75.584 472.297 75.4133 471.934 75.072C471.593 74.7093 471.422 74.2507 471.422 73.696C471.422 73.12 471.689 71.712 472.222 69.472C472.777 67.2107 473.193 65.2907 473.47 63.712C473.769 62.112 474.035 60.9493 474.27 60.224C474.526 59.4773 474.825 59.104 475.166 59.104ZM492.503 66.016C492.823 66.3787 492.983 66.816 492.983 67.328C492.983 67.84 492.769 68.4693 492.343 69.216C491.809 70.496 491.34 72.0853 490.935 73.984C490.529 75.8827 490.124 77.3973 489.719 78.528C489.335 79.68 488.908 80.6613 488.439 81.472C487.991 82.2827 487.372 82.9547 486.583 83.488C485.793 84.0213 484.887 84.288 483.863 84.288C482.433 84.288 481.153 83.8187 480.023 82.88C478.892 81.9413 478.326 81.1307 478.326 80.448C478.326 79.7867 478.508 79.1787 478.87 78.624C479.233 78.0907 479.564 77.824 479.863 77.824C480.183 77.824 480.481 77.9947 480.759 78.336C481.057 78.6773 481.324 79.04 481.559 79.424C481.815 79.8293 482.145 80.2027 482.551 80.544C482.956 80.8853 483.404 81.056 483.895 81.056C484.385 81.056 484.833 80.736 485.239 80.096C485.644 79.456 485.953 78.7627 486.167 78.016C486.7 76.2667 487.031 75.0187 487.159 74.272C485.708 75.168 484.524 75.616 483.607 75.616C482.711 75.616 481.836 75.1253 480.983 74.144C480.129 73.1413 479.703 72.2027 479.703 71.328C479.703 70.432 479.937 69.3227 480.407 68C480.897 66.656 481.516 65.3227 482.263 64C483.031 62.656 483.991 61.504 485.143 60.544C486.316 59.584 487.489 59.104 488.663 59.104C489.452 59.104 490.124 59.3067 490.679 59.712C491.233 60.096 491.639 60.6187 491.895 61.28C492.343 62.432 492.567 63.7333 492.567 65.184C492.567 65.3973 492.545 65.6747 492.503 66.016ZM483.639 71.168C483.639 71.4453 483.756 71.584 483.991 71.584C484.609 71.584 485.612 71.0187 486.999 69.888C488.385 68.7573 489.313 67.6373 489.783 66.528V65.92C489.783 64.5333 489.655 63.6907 489.399 63.392C489.271 63.2427 489.1 63.168 488.887 63.168C487.863 63.168 486.732 64.2453 485.495 66.4C484.257 68.5547 483.639 70.144 483.639 71.168ZM499.269 51.488C499.269 50.592 499.621 50.144 500.325 50.144C500.901 50.144 501.562 50.624 502.309 51.584C503.055 52.544 503.429 53.3653 503.429 54.048C503.429 54.7307 503.29 55.6907 503.013 56.928C502.735 58.1653 502.447 59.296 502.149 60.32C501.871 61.344 501.445 62.8053 500.869 64.704C500.293 66.5813 499.898 67.8933 499.685 68.64C501.071 65.824 502.533 63.5307 504.069 61.76C505.626 59.9893 506.927 59.104 507.973 59.104C508.634 59.104 509.391 59.6907 510.245 60.864C511.098 62.016 511.525 63.0613 511.525 64C511.525 64.9173 511.354 66.2613 511.013 68.032C510.671 69.8027 510.074 71.5093 509.221 73.152C508.367 74.7947 507.493 75.616 506.597 75.616C505.893 75.616 505.541 75.1147 505.541 74.112C505.541 73.3867 505.754 72.2027 506.181 70.56C506.799 68.1067 507.109 66.6133 507.109 66.08C507.109 65.5467 507.023 65.28 506.853 65.28C505.615 65.28 503.802 67.3387 501.413 71.456C500.602 72.864 499.919 73.9093 499.365 74.592C498.831 75.2747 498.319 75.616 497.829 75.616C497.338 75.616 496.741 75.2213 496.037 74.432C495.354 73.6427 495.013 73.0347 495.013 72.608C495.013 72.16 495.098 71.5093 495.269 70.656C495.461 69.8027 495.738 68.5867 496.101 67.008C496.485 65.4293 497.103 62.5707 497.957 58.432C498.831 54.272 499.269 51.9573 499.269 51.488ZM527.636 65.088C527.636 66.1333 526.921 67.072 525.492 67.904C524.084 68.736 522.633 69.152 521.14 69.152C519.647 69.152 518.42 69.0453 517.46 68.832C517.268 69.408 517.172 69.984 517.172 70.56C517.172 71.136 517.268 71.552 517.46 71.808C517.652 72.0427 518.132 72.16 518.9 72.16C520.5 72.16 521.865 72.0107 522.996 71.712C524.148 71.4133 524.745 71.264 524.788 71.264C525.663 71.264 526.1 71.552 526.1 72.128C526.1 72.96 525.407 73.7493 524.02 74.496C522.655 75.2427 521.065 75.616 519.252 75.616C517.46 75.616 516.02 75.0507 514.932 73.92C513.844 72.7893 513.3 71.456 513.3 69.92C513.3 68.3627 513.748 66.7413 514.644 65.056C515.561 63.3707 516.703 61.9627 518.068 60.832C519.433 59.68 520.788 59.104 522.132 59.104C523.497 59.104 524.756 59.776 525.908 61.12C527.06 62.4427 527.636 63.7653 527.636 65.088ZM523.924 64.576C523.924 64.3627 523.7 64.0533 523.252 63.648C522.804 63.2427 522.377 63.04 521.972 63.04C521.588 63.04 521.087 63.328 520.468 63.904C519.849 64.4587 519.263 65.184 518.708 66.08C518.9 66.1013 519.177 66.112 519.54 66.112C522.463 66.112 523.924 65.6 523.924 64.576ZM530.685 64.512L530.493 60.896C530.493 59.7013 530.866 59.104 531.613 59.104C532.04 59.104 532.456 59.264 532.861 59.584C533.288 59.904 533.608 60.4053 533.821 61.088C534.546 60.448 535.336 59.936 536.189 59.552C537.064 59.1467 537.832 58.944 538.493 58.944C540.05 58.944 540.829 59.3173 540.829 60.064C540.829 60.448 540.754 60.736 540.605 60.928C540.477 61.0987 540.37 61.2267 540.285 61.312C540.221 61.3973 540.093 61.5147 539.901 61.664C539.73 61.792 539.602 61.888 539.517 61.952C539.026 62.272 538.674 62.496 538.461 62.624C537.501 63.2213 536.68 63.9467 535.997 64.8C535.314 65.632 534.802 66.7947 534.461 68.288C533.885 70.7413 533.32 72.576 532.765 73.792C532.232 74.9867 531.624 75.584 530.941 75.584C530.28 75.584 529.778 75.264 529.437 74.624C529.117 73.984 528.957 73.3867 528.957 72.832C528.957 72.256 529.16 71.4027 529.565 70.272C529.992 69.1413 530.28 68.1707 530.429 67.36C530.6 66.528 530.685 65.5787 530.685 64.512ZM175.031 119.96C175.031 121.773 174.167 123.331 172.439 124.632C170.711 125.933 168.737 126.584 166.519 126.584C164.3 126.584 162.508 126.04 161.143 124.952C159.799 123.843 159.127 122.701 159.127 121.528C159.127 120.355 159.457 119.768 160.118 119.768C160.631 119.768 161.164 120.024 161.719 120.536C162.273 121.048 162.892 121.56 163.575 122.072C164.279 122.584 165.068 122.84 165.943 122.84C166.817 122.84 167.809 122.477 168.919 121.752C170.028 121.027 170.583 120.419 170.583 119.928C170.583 119.437 169.975 118.616 168.759 117.464C167.564 116.312 166.359 115.128 165.143 113.912C163.948 112.675 163.351 111.725 163.351 111.064C163.351 110.381 163.468 109.645 163.703 108.856C163.959 108.067 164.268 107.523 164.631 107.224C165.783 106.093 167.265 105.123 169.079 104.312C170.913 103.48 172.524 103.064 173.911 103.064C174.721 103.064 175.393 103.416 175.927 104.12C176.46 104.803 176.727 105.517 176.727 106.264C176.727 106.563 176.481 106.808 175.991 107C175.521 107.171 174.828 107.352 173.911 107.544C173.015 107.736 172.097 108.013 171.159 108.376C168.983 109.187 167.895 109.869 167.895 110.424C167.895 110.68 168.268 111.149 169.015 111.832C169.761 112.493 170.572 113.197 171.447 113.944C172.343 114.669 173.164 115.597 173.911 116.728C174.657 117.837 175.031 118.915 175.031 119.96ZM188.751 110.904C188.921 110.371 189.263 110.104 189.775 110.104C190.287 110.104 190.873 110.541 191.535 111.416C192.217 112.291 192.559 113.048 192.559 113.688C192.559 113.923 192.068 115.491 191.087 118.392C190.105 121.293 189.348 123.587 188.815 125.272C188.516 126.168 188.015 126.616 187.311 126.616C186.884 126.616 186.521 126.467 186.223 126.168C185.945 125.848 185.807 125.357 185.807 124.696C185.807 124.035 185.935 123.096 186.191 121.88C183.993 125.037 182.244 126.616 180.943 126.616C180.26 126.616 179.439 126.179 178.479 125.304C177.519 124.408 177.039 123.544 177.039 122.712C177.039 120.664 177.615 118.051 178.767 114.872C179.94 111.693 181.039 110.104 182.063 110.104C182.681 110.104 183.225 110.381 183.695 110.936C184.185 111.491 184.431 112.099 184.431 112.76C184.431 113.016 184.164 113.731 183.631 114.904C182.009 118.424 181.199 120.909 181.199 122.36C181.199 122.488 181.252 122.552 181.359 122.552C181.679 122.552 182.276 122.051 183.151 121.048C184.047 120.024 185.039 118.573 186.127 116.696C187.236 114.797 188.111 112.867 188.751 110.904ZM204.697 110.136C205.487 110.136 206.329 110.84 207.225 112.248C208.143 113.656 208.601 115.064 208.601 116.472C208.601 117.325 208.239 118.339 207.513 119.512C206.788 120.685 205.871 121.795 204.761 122.84C203.673 123.864 202.404 124.739 200.953 125.464C199.524 126.189 198.159 126.552 196.857 126.552H196.473C195.129 132.141 194.18 134.936 193.625 134.936C193.177 134.936 192.708 134.563 192.217 133.816C191.705 133.069 191.449 132.451 191.449 131.96C191.449 131.469 191.759 129.965 192.377 127.448C194.212 119.981 195.129 114.349 195.129 110.552C195.129 109.912 195.439 109.592 196.057 109.592C196.569 109.592 197.22 109.88 198.009 110.456C198.799 111.032 199.289 111.779 199.481 112.696C201.295 110.989 203.033 110.136 204.697 110.136ZM197.465 122.744C199.129 122.424 200.697 121.507 202.169 119.992C203.663 118.477 204.409 117.165 204.409 116.056C204.409 114.947 204.1 114.392 203.481 114.392C202.585 114.392 201.636 114.904 200.633 115.928C200.228 116.355 199.78 116.984 199.289 117.816C198.799 118.648 198.372 119.619 198.009 120.728L197.465 122.744ZM224.636 116.088C224.636 117.133 223.921 118.072 222.492 118.904C221.084 119.736 219.633 120.152 218.14 120.152C216.647 120.152 215.42 120.045 214.46 119.832C214.268 120.408 214.172 120.984 214.172 121.56C214.172 122.136 214.268 122.552 214.46 122.808C214.652 123.043 215.132 123.16 215.9 123.16C217.5 123.16 218.865 123.011 219.996 122.712C221.148 122.413 221.745 122.264 221.788 122.264C222.663 122.264 223.1 122.552 223.1 123.128C223.1 123.96 222.407 124.749 221.02 125.496C219.655 126.243 218.065 126.616 216.252 126.616C214.46 126.616 213.02 126.051 211.932 124.92C210.844 123.789 210.3 122.456 210.3 120.92C210.3 119.363 210.748 117.741 211.644 116.056C212.561 114.371 213.703 112.963 215.068 111.832C216.433 110.68 217.788 110.104 219.132 110.104C220.497 110.104 221.756 110.776 222.908 112.12C224.06 113.443 224.636 114.765 224.636 116.088ZM220.924 115.576C220.924 115.363 220.7 115.053 220.252 114.648C219.804 114.243 219.377 114.04 218.972 114.04C218.588 114.04 218.087 114.328 217.468 114.904C216.849 115.459 216.263 116.184 215.708 117.08C215.9 117.101 216.177 117.112 216.54 117.112C219.463 117.112 220.924 116.6 220.924 115.576ZM227.685 115.512L227.493 111.896C227.493 110.701 227.866 110.104 228.613 110.104C229.04 110.104 229.456 110.264 229.861 110.584C230.288 110.904 230.608 111.405 230.821 112.088C231.546 111.448 232.336 110.936 233.189 110.552C234.064 110.147 234.832 109.944 235.493 109.944C237.05 109.944 237.829 110.317 237.829 111.064C237.829 111.448 237.754 111.736 237.605 111.928C237.477 112.099 237.37 112.227 237.285 112.312C237.221 112.397 237.093 112.515 236.901 112.664C236.73 112.792 236.602 112.888 236.517 112.952C236.026 113.272 235.674 113.496 235.461 113.624C234.501 114.221 233.68 114.947 232.997 115.8C232.314 116.632 231.802 117.795 231.461 119.288C230.885 121.741 230.32 123.576 229.765 124.792C229.232 125.987 228.624 126.584 227.941 126.584C227.28 126.584 226.778 126.264 226.437 125.624C226.117 124.984 225.957 124.387 225.957 123.832C225.957 123.256 226.16 122.403 226.565 121.272C226.992 120.141 227.28 119.171 227.429 118.36C227.6 117.528 227.685 116.579 227.685 115.512ZM256.967 113.144C258.098 113.144 259.314 113.091 260.615 112.984C261.917 112.856 262.717 112.792 263.015 112.792C263.335 112.792 263.581 112.867 263.751 113.016C263.943 113.165 264.039 113.347 264.039 113.56C264.039 114.499 263.154 115.245 261.383 115.8C259.613 116.355 257.725 116.675 255.719 116.76C254.887 119.341 254.471 120.973 254.471 121.656C254.471 122.019 254.653 122.2 255.015 122.2C257.447 122.2 259.954 121.88 262.535 121.24C263.41 121.005 263.911 120.888 264.039 120.888C264.445 120.888 264.647 121.176 264.647 121.752C264.647 122.52 264.082 123.267 262.951 123.992C261.821 124.717 260.402 125.293 258.695 125.72C256.989 126.147 255.314 126.36 253.671 126.36C252.69 126.36 251.805 125.997 251.015 125.272C250.226 124.525 249.831 123.661 249.831 122.68C249.831 121.677 250.375 119.181 251.463 115.192C252.573 111.203 253.159 108.195 253.223 106.168C253.202 106.104 253.191 105.976 253.191 105.784C253.191 105.485 253.234 105.251 253.319 105.08C253.554 104.483 254.205 104.109 255.271 103.96C256.338 103.789 258.258 103.704 261.031 103.704C265.639 103.704 267.943 104.216 267.943 105.24C267.943 105.901 267.378 106.36 266.247 106.616C265.479 106.787 264.423 106.947 263.079 107.096C261.01 107.331 259.165 107.672 257.543 108.12C257.543 109.571 257.287 111.245 256.775 113.144H256.967ZM281.056 117.528C281.44 117.869 281.632 118.179 281.632 118.456C281.632 118.733 281.504 119.309 281.248 120.184C280.992 121.059 280.822 121.741 280.736 122.232C280.651 122.701 280.576 123.075 280.512 123.352C280.47 123.629 280.438 123.853 280.416 124.024C280.395 124.173 280.352 124.365 280.288 124.6C280.246 124.835 280.203 125.027 280.16 125.176C280.139 125.304 280.096 125.464 280.032 125.656C279.99 125.827 279.936 125.965 279.872 126.072C279.808 126.157 279.734 126.253 279.648 126.36C279.52 126.531 279.307 126.616 279.008 126.616C278.71 126.616 278.336 126.317 277.888 125.72C277.462 125.123 277.142 124.397 276.928 123.544C274.923 125.592 273.238 126.616 271.872 126.616C270.955 126.616 269.963 126.115 268.896 125.112C267.83 124.088 267.296 123.075 267.296 122.072C267.296 121.048 267.755 119.597 268.672 117.72C269.59 115.843 270.838 114.104 272.416 112.504C274.016 110.904 275.595 110.104 277.152 110.104C278.048 110.104 279.083 110.627 280.256 111.672C281.43 112.717 282.016 113.677 282.016 114.552C282.016 115.405 281.696 116.397 281.056 117.528ZM271.744 122.584C272.598 122.584 273.728 122.008 275.136 120.856C276.566 119.683 277.451 118.211 277.792 116.44C277.814 116.184 277.995 116.035 278.336 115.992C278.272 114.776 278.07 114.168 277.728 114.168C276.875 114.168 275.915 114.723 274.848 115.832C273.803 116.941 272.939 118.125 272.256 119.384C271.595 120.643 271.264 121.571 271.264 122.168C271.264 122.339 271.286 122.456 271.328 122.52C271.392 122.563 271.531 122.584 271.744 122.584ZM293.977 110.136C294.787 110.136 295.587 110.616 296.377 111.576C297.166 112.536 297.561 113.4 297.561 114.168C297.561 114.68 297.337 114.936 296.889 114.936C296.633 114.936 296.259 114.84 295.769 114.648C295.278 114.435 294.777 114.328 294.265 114.328C293.774 114.328 293.038 114.499 292.057 114.84C291.097 115.181 290.617 115.629 290.617 116.184C290.617 116.397 290.905 116.707 291.481 117.112C292.057 117.517 292.686 117.933 293.369 118.36C294.051 118.787 294.681 119.384 295.257 120.152C295.833 120.899 296.121 121.72 296.121 122.616C296.121 123.491 295.47 124.376 294.169 125.272C292.889 126.168 291.374 126.616 289.625 126.616C287.897 126.616 286.414 126.221 285.177 125.432C283.939 124.643 283.321 123.832 283.321 123C283.321 122.168 283.662 121.752 284.345 121.752C284.622 121.752 284.953 121.859 285.337 122.072C286.403 122.691 287.726 123 289.305 123C290.905 123 291.705 122.787 291.705 122.36C291.705 121.933 291.395 121.464 290.777 120.952C290.179 120.419 289.518 119.928 288.793 119.48C288.089 119.032 287.427 118.488 286.809 117.848C286.211 117.187 285.913 116.547 285.913 115.928C285.913 114.776 286.958 113.528 289.049 112.184C291.139 110.819 292.782 110.136 293.977 110.136ZM310.642 110.904C310.77 110.371 311.122 110.104 311.698 110.104C312.274 110.104 312.861 110.467 313.458 111.192C314.077 111.917 314.386 112.739 314.386 113.656C314.386 114.189 314.194 115.032 313.81 116.184C313.426 117.336 313.149 118.157 312.978 118.648C312.829 119.139 312.605 119.811 312.306 120.664C312.008 121.496 311.73 122.275 311.474 123C311.24 123.704 310.909 124.653 310.482 125.848C310.077 127.043 309.704 128.152 309.362 129.176C308.701 131.096 307.89 132.579 306.93 133.624C305.992 134.669 304.765 135.192 303.25 135.192C301.736 135.192 300.381 134.787 299.186 133.976C297.992 133.187 297.394 132.387 297.394 131.576C297.394 131.085 297.608 130.541 298.034 129.944C298.482 129.347 298.856 129.048 299.154 129.048C299.474 129.048 299.88 129.293 300.37 129.784C300.882 130.296 301.405 130.797 301.938 131.288C302.472 131.8 302.941 132.056 303.346 132.056C303.624 132.056 303.848 131.928 304.018 131.672C304.21 131.416 304.36 131.181 304.466 130.968C304.594 130.776 304.722 130.499 304.85 130.136C304.978 129.795 305.096 129.475 305.202 129.176C305.309 128.877 305.437 128.483 305.586 127.992C305.736 127.501 305.864 127.064 305.97 126.68C306.333 125.528 306.642 124.504 306.898 123.608C306.194 124.525 305.469 125.261 304.722 125.816C303.976 126.349 303.282 126.616 302.642 126.616C302.024 126.616 301.245 126.147 300.306 125.208C299.389 124.248 298.93 123.203 298.93 122.072C298.93 120.92 299.176 119.384 299.666 117.464C300.178 115.544 300.808 113.837 301.554 112.344C302.301 110.851 302.962 110.104 303.538 110.104C304.2 110.104 304.818 110.392 305.394 110.968C305.992 111.523 306.29 112.067 306.29 112.6C306.29 113.112 306.024 113.944 305.49 115.096C304.978 116.248 304.456 117.507 303.922 118.872C303.389 120.237 303.122 121.4 303.122 122.36C303.122 122.488 303.176 122.552 303.282 122.552C303.56 122.552 304.146 122.04 305.042 121.016C305.938 119.971 306.941 118.499 308.05 116.6C309.181 114.68 310.045 112.781 310.642 110.904ZM342.812 119.96C342.812 121.773 341.948 123.331 340.22 124.632C338.492 125.933 336.518 126.584 334.3 126.584C332.081 126.584 330.289 126.04 328.924 124.952C327.58 123.843 326.908 122.701 326.908 121.528C326.908 120.355 327.238 119.768 327.9 119.768C328.412 119.768 328.945 120.024 329.5 120.536C330.054 121.048 330.673 121.56 331.356 122.072C332.06 122.584 332.849 122.84 333.724 122.84C334.598 122.84 335.59 122.477 336.7 121.752C337.809 121.027 338.364 120.419 338.364 119.928C338.364 119.437 337.756 118.616 336.54 117.464C335.345 116.312 334.14 115.128 332.924 113.912C331.729 112.675 331.132 111.725 331.132 111.064C331.132 110.381 331.249 109.645 331.484 108.856C331.74 108.067 332.049 107.523 332.412 107.224C333.564 106.093 335.046 105.123 336.86 104.312C338.694 103.48 340.305 103.064 341.692 103.064C342.502 103.064 343.174 103.416 343.708 104.12C344.241 104.803 344.508 105.517 344.508 106.264C344.508 106.563 344.262 106.808 343.772 107C343.302 107.171 342.609 107.352 341.692 107.544C340.796 107.736 339.878 108.013 338.94 108.376C336.764 109.187 335.676 109.869 335.676 110.424C335.676 110.68 336.049 111.149 336.796 111.832C337.542 112.493 338.353 113.197 339.228 113.944C340.124 114.669 340.945 115.597 341.692 116.728C342.438 117.837 342.812 118.915 342.812 119.96ZM359.636 116.088C359.636 117.133 358.921 118.072 357.492 118.904C356.084 119.736 354.633 120.152 353.14 120.152C351.647 120.152 350.42 120.045 349.46 119.832C349.268 120.408 349.172 120.984 349.172 121.56C349.172 122.136 349.268 122.552 349.46 122.808C349.652 123.043 350.132 123.16 350.9 123.16C352.5 123.16 353.865 123.011 354.996 122.712C356.148 122.413 356.745 122.264 356.788 122.264C357.663 122.264 358.1 122.552 358.1 123.128C358.1 123.96 357.407 124.749 356.02 125.496C354.655 126.243 353.065 126.616 351.252 126.616C349.46 126.616 348.02 126.051 346.932 124.92C345.844 123.789 345.3 122.456 345.3 120.92C345.3 119.363 345.748 117.741 346.644 116.056C347.561 114.371 348.703 112.963 350.068 111.832C351.433 110.68 352.788 110.104 354.132 110.104C355.497 110.104 356.756 110.776 357.908 112.12C359.06 113.443 359.636 114.765 359.636 116.088ZM355.924 115.576C355.924 115.363 355.7 115.053 355.252 114.648C354.804 114.243 354.377 114.04 353.972 114.04C353.588 114.04 353.087 114.328 352.468 114.904C351.849 115.459 351.263 116.184 350.708 117.08C350.9 117.101 351.177 117.112 351.54 117.112C354.463 117.112 355.924 116.6 355.924 115.576ZM369.213 113.912C369.042 114.488 368.786 115.299 368.445 116.344C368.125 117.368 367.72 118.659 367.229 120.216C366.76 121.773 366.525 122.605 366.525 122.712C366.525 122.797 366.696 122.84 367.037 122.84C367.4 122.84 368.242 122.605 369.565 122.136C370.888 121.645 371.666 121.4 371.901 121.4C372.434 121.4 372.701 121.763 372.701 122.488C372.701 123.213 371.986 124.088 370.557 125.112C369.128 126.115 367.634 126.616 366.077 126.616C365.394 126.616 364.584 126.243 363.645 125.496C362.706 124.749 362.237 123.992 362.237 123.224C362.237 122.584 362.557 121.24 363.197 119.192C363.858 117.123 364.306 115.704 364.541 114.936C363.709 115.171 363.08 115.288 362.653 115.288C362.226 115.288 361.778 115 361.309 114.424C360.84 113.827 360.605 113.261 360.605 112.728C360.605 112.045 362.258 111.469 365.565 111C365.97 109.016 366.173 107.299 366.173 105.848C366.173 105.208 366.493 104.888 367.133 104.888C367.688 104.888 368.392 105.229 369.245 105.912C370.12 106.573 370.557 107.235 370.557 107.896C370.557 108.536 370.418 109.443 370.141 110.616C371.165 110.573 371.944 110.552 372.477 110.552C374.077 110.552 374.877 110.915 374.877 111.64C374.877 112.109 374.408 112.515 373.469 112.856C372.552 113.176 371.133 113.528 369.213 113.912ZM386.595 110.904C386.765 110.371 387.107 110.104 387.619 110.104C388.131 110.104 388.717 110.541 389.379 111.416C390.061 112.291 390.403 113.048 390.403 113.688C390.403 113.923 389.912 115.491 388.931 118.392C387.949 121.293 387.192 123.587 386.659 125.272C386.36 126.168 385.859 126.616 385.155 126.616C384.728 126.616 384.365 126.467 384.067 126.168C383.789 125.848 383.651 125.357 383.651 124.696C383.651 124.035 383.779 123.096 384.035 121.88C381.837 125.037 380.088 126.616 378.786 126.616C378.104 126.616 377.283 126.179 376.323 125.304C375.363 124.408 374.883 123.544 374.883 122.712C374.883 120.664 375.459 118.051 376.611 114.872C377.784 111.693 378.883 110.104 379.907 110.104C380.525 110.104 381.069 110.381 381.539 110.936C382.029 111.491 382.275 112.099 382.275 112.76C382.275 113.016 382.008 113.731 381.475 114.904C379.853 118.424 379.043 120.909 379.043 122.36C379.043 122.488 379.096 122.552 379.203 122.552C379.523 122.552 380.12 122.051 380.995 121.048C381.891 120.024 382.883 118.573 383.97 116.696C385.08 114.797 385.955 112.867 386.595 110.904ZM402.541 110.136C403.33 110.136 404.173 110.84 405.069 112.248C405.986 113.656 406.445 115.064 406.445 116.472C406.445 117.325 406.082 118.339 405.357 119.512C404.632 120.685 403.714 121.795 402.605 122.84C401.517 123.864 400.248 124.739 398.797 125.464C397.368 126.189 396.002 126.552 394.701 126.552H394.317C392.973 132.141 392.024 134.936 391.469 134.936C391.021 134.936 390.552 134.563 390.061 133.816C389.549 133.069 389.293 132.451 389.293 131.96C389.293 131.469 389.602 129.965 390.221 127.448C392.056 119.981 392.973 114.349 392.973 110.552C392.973 109.912 393.282 109.592 393.901 109.592C394.413 109.592 395.064 109.88 395.853 110.456C396.642 111.032 397.133 111.779 397.325 112.696C399.138 110.989 400.877 110.136 402.541 110.136ZM395.309 122.744C396.973 122.424 398.541 121.507 400.013 119.992C401.506 118.477 402.253 117.165 402.253 116.056C402.253 114.947 401.944 114.392 401.325 114.392C400.429 114.392 399.48 114.904 398.477 115.928C398.072 116.355 397.624 116.984 397.133 117.816C396.642 118.648 396.216 119.619 395.853 120.728L395.309 122.744Z" fill="#1E64E6"/>
</svg>
