<svg width="620" height="127" viewBox="0 0 620 127" fill="none" xmlns="http://www.w3.org/2000/svg">
<path d="M3.704 24.584C3.256 24.584 2.62667 24.0827 1.816 23.08C1.00533 22.056 0.6 21.2773 0.6 20.744C0.6 20.1893 0.92 18.536 1.56 15.784C1.048 15.272 0.792 14.632 0.792 13.864C0.792 13.4373 1.304 13.0107 2.328 12.584C3.672 7.12267 4.344 3.66667 4.344 2.216C4.344 1.512 4.65333 1.16 5.272 1.16C5.784 1.16 6.44533 1.672 7.256 2.696C8.088 3.72 8.504 4.68 8.504 5.576C8.504 6.152 8.12 8.072 7.352 11.336C9.18667 11.016 11.0107 10.824 12.824 10.76C13.848 6.472 14.36 3.624 14.36 2.216C14.36 1.512 14.6693 1.16 15.288 1.16C15.8 1.16 16.4613 1.672 17.272 2.696C18.104 3.72 18.52 4.68 18.52 5.576C18.52 6.024 18.104 7.85867 17.272 11.08C18.3387 11.336 18.872 11.752 18.872 12.328C18.872 12.9893 18.0827 13.512 16.504 13.896C15.736 16.84 15.2347 18.792 15 19.752C14.7653 20.6907 14.584 21.4053 14.456 21.896C14.3493 22.3653 14.232 22.824 14.104 23.272C13.8693 24.1467 13.6453 24.584 13.432 24.584C12.92 24.584 12.3013 24.1787 11.576 23.368C10.872 22.5573 10.52 21.7467 10.52 20.936C10.52 20.4667 10.968 18.3867 11.864 14.696C9.41067 15.1013 7.52267 15.4747 6.2 15.816C5.53867 18.3547 5.10133 20.1253 4.888 21.128C4.67467 22.1093 4.504 22.824 4.376 23.272C4.14133 24.1467 3.91733 24.584 3.704 24.584ZM25.2838 1.096C25.8171 1.096 26.4891 1.48 27.2998 2.248C28.1318 3.016 28.5478 3.77333 28.5478 4.52C28.5478 5.24533 28.1638 7.144 27.3958 10.216C26.6278 13.288 26.2438 15.4107 26.2438 16.584C26.2438 17.736 26.3824 18.6213 26.6598 19.24C26.9584 19.8587 27.3638 20.168 27.8758 20.168C28.4091 20.168 29.0278 19.7947 29.7318 19.048C30.4358 18.28 31.1078 17.2987 31.7478 16.104C32.4091 14.888 32.9531 13.448 33.3798 11.784C33.8278 10.0987 34.0518 8.54133 34.0518 7.112C34.0518 5.66133 33.9771 4.49867 33.8278 3.624C33.6998 2.74933 33.6358 2.22667 33.6358 2.056C33.6358 1.39467 33.9131 1.064 34.4678 1.064C35.1504 1.064 36.0251 1.64 37.0918 2.792C38.1798 3.944 38.7238 5.32 38.7238 6.92C38.7238 8.49867 38.4464 10.3227 37.8918 12.392C37.3371 14.44 36.5904 16.3813 35.6518 18.216C34.7131 20.0507 33.5184 21.576 32.0678 22.792C30.6384 24.008 29.1664 24.616 27.6518 24.616C26.1584 24.616 24.8038 23.8267 23.5878 22.248C22.3718 20.6693 21.7638 19.0587 21.7638 17.416C21.7638 15.7733 21.9771 13.8747 22.4038 11.72C22.8304 9.544 23.2571 7.592 23.6838 5.864C24.1104 4.136 24.3238 2.90933 24.3238 2.184C24.3238 1.45867 24.6438 1.096 25.2838 1.096ZM44.603 1.16C45.0083 1.16 45.7977 1.59733 46.971 2.472C48.1657 3.32533 48.763 3.96533 48.763 4.392C48.763 5.13867 49.0083 6.36533 49.499 8.072C49.9897 9.77867 50.555 11.3253 51.195 12.712C51.835 11.9653 52.9123 10.5893 54.427 8.584C55.963 6.55733 57.2537 4.95733 58.299 3.784C59.3443 2.61067 60.123 2.024 60.635 2.024C61.147 2.024 61.6803 2.312 62.235 2.888C62.7897 3.464 63.067 4.04 63.067 4.616C63.067 5.192 62.9817 5.93867 62.811 6.856C62.6403 7.752 62.4483 8.59467 62.235 9.384C62.043 10.152 61.755 11.208 61.371 12.552C61.0083 13.896 60.7203 14.9627 60.507 15.752C60.315 16.52 60.1123 17.352 59.899 18.248C59.6857 19.1227 59.515 19.816 59.387 20.328C59.2803 20.8187 59.1523 21.3413 59.003 21.896C58.875 22.4293 58.7577 22.8453 58.651 23.144C58.5443 23.4213 58.427 23.6773 58.299 23.912C58.0643 24.36 57.7337 24.584 57.307 24.584C56.8803 24.584 56.4537 24.168 56.027 23.336C55.6217 22.4827 55.419 21.5973 55.419 20.68C55.419 18.4187 56.0697 15.4213 57.371 11.688C57.0083 12.1573 56.4857 12.8507 55.803 13.768C55.1203 14.664 54.6083 15.3253 54.267 15.752C53.947 16.1573 53.5417 16.6373 53.051 17.192C52.1763 18.152 51.323 18.632 50.491 18.632C49.3817 18.632 48.5923 18.1947 48.123 17.32C47.8883 16.872 47.5683 15.8693 47.163 14.312C46.779 12.7333 46.5017 11.6453 46.331 11.048C46.0537 13.2453 45.6803 15.24 45.211 17.032C44.7417 18.824 44.4323 19.9973 44.283 20.552C44.1337 21.1067 43.931 21.7787 43.675 22.568C43.2483 23.912 42.8643 24.584 42.523 24.584C42.139 24.584 41.6057 24.0827 40.923 23.08C40.2617 22.056 39.931 21.256 39.931 20.68C39.931 20.104 40.5497 17.224 41.787 12.04C43.0457 6.856 43.675 3.58133 43.675 2.216C43.675 1.512 43.9843 1.16 44.603 1.16ZM79.3505 12.584C80.2038 12.584 80.8118 12.6693 81.1745 12.84C81.5585 12.9893 81.7505 13.2773 81.7505 13.704C81.7505 14.28 80.8225 14.8667 78.9665 15.464C79.0092 17.0853 79.0305 18.6427 79.0305 20.136C79.0305 21.608 78.9132 22.7173 78.6785 23.464C78.4438 24.1893 78.0705 24.552 77.5585 24.552C77.0465 24.552 76.6412 24.296 76.3425 23.784C76.0652 23.2507 75.8305 22.3867 75.6385 21.192C75.4678 19.9973 75.2865 18.4187 75.0945 16.456C72.9185 16.9467 71.3505 17.3413 70.3905 17.64C68.7265 22.248 67.6172 24.552 67.0625 24.552C66.6145 24.552 66.0172 24.2533 65.2705 23.656C64.5452 23.0587 64.1825 22.44 64.1825 21.8C64.1825 21.4373 64.5985 20.3067 65.4305 18.408C65.0678 18.1733 64.7478 17.8427 64.4705 17.416C64.2145 16.968 64.0865 16.5413 64.0865 16.136C64.0865 15.432 65.1425 14.76 67.2545 14.12C67.4252 13.6933 67.5958 13.2133 67.7665 12.68C67.9585 12.1253 68.4172 10.8453 69.1425 8.84C69.8892 6.83467 70.4758 5.16 70.9025 3.816C71.0945 3.176 71.7558 2.57867 72.8865 2.024C74.0385 1.46933 74.9345 1.192 75.5745 1.192C76.3212 1.192 76.9825 2.22667 77.5585 4.296C78.1558 6.36533 78.5718 9.128 78.8065 12.584H79.3505ZM71.9585 13.128C72.5985 13.0427 73.5265 12.936 74.7425 12.808C74.6785 12.1893 74.5718 11.1333 74.4225 9.64C74.2945 8.14667 74.1985 7.06933 74.1345 6.408C73.7718 7.60267 73.0465 9.84267 71.9585 13.128ZM99.9868 0.999998C100.605 0.999998 101.288 1.32 102.035 1.96C102.803 2.6 103.187 3.12267 103.187 3.528C103.187 4.872 102.867 7.208 102.227 10.536C101.608 13.8427 100.808 17.0107 99.8268 20.04C98.8454 23.0693 97.9601 24.584 97.1708 24.584C96.8508 24.584 96.4348 24.4133 95.9228 24.072C95.4108 23.7093 95.0694 23.2933 94.8988 22.824C94.7281 22.3333 94.3974 21.3307 93.9068 19.816C92.7761 16.3387 91.7094 13.4587 90.7068 11.176C90.5574 11.816 90.3548 12.7227 90.0988 13.896C89.8641 15.0693 89.6721 15.9973 89.5228 16.68C89.3734 17.3413 89.1921 18.152 88.9788 19.112C88.7654 20.0507 88.5734 20.7973 88.4028 21.352C88.2534 21.9067 88.0828 22.4613 87.8908 23.016C87.5494 24.0613 87.2294 24.584 86.9308 24.584C86.5041 24.584 85.9494 24.2 85.2668 23.432C84.5841 22.6427 84.2428 21.9707 84.2428 21.416C84.2428 20.84 84.8508 17.864 86.0668 12.488C87.3041 7.112 87.9761 3.74133 88.0828 2.376C88.1468 1.56533 88.3921 1.16 88.8188 1.16C89.1814 1.16 89.6401 1.37333 90.1948 1.8C90.7708 2.22667 91.2614 2.74933 91.6667 3.368C92.0934 3.96533 92.8508 5.93867 93.9388 9.288C95.0268 12.6373 95.8908 15.0373 96.5308 16.488C97.3628 14.0133 98.1308 10.28 98.8348 5.288C99.1121 3.304 99.2934 2.09867 99.3787 1.672C99.4641 1.224 99.6668 0.999998 99.9868 0.999998ZM123.655 11.144C124.785 11.144 126.001 11.0907 127.303 10.984C128.604 10.856 129.404 10.792 129.703 10.792C130.023 10.792 130.268 10.8667 130.439 11.016C130.631 11.1653 130.727 11.3467 130.727 11.56C130.727 12.4987 129.841 13.2453 128.071 13.8C126.3 14.3547 124.412 14.6747 122.407 14.76C121.575 17.3413 121.159 18.9733 121.159 19.656C121.159 20.0187 121.34 20.2 121.703 20.2C124.135 20.2 126.641 19.88 129.223 19.24C130.097 19.0053 130.599 18.888 130.727 18.888C131.132 18.888 131.335 19.176 131.335 19.752C131.335 20.52 130.769 21.2667 129.639 21.992C128.508 22.7173 127.089 23.2933 125.383 23.72C123.676 24.1467 122.001 24.36 120.359 24.36C119.377 24.36 118.492 23.9973 117.703 23.272C116.913 22.5253 116.519 21.6613 116.519 20.68C116.519 19.6773 117.063 17.1813 118.151 13.192C119.26 9.20267 119.847 6.19467 119.911 4.168C119.889 4.104 119.879 3.976 119.879 3.784C119.879 3.48533 119.921 3.25067 120.007 3.08C120.241 2.48266 120.892 2.10933 121.959 1.96C123.025 1.78933 124.945 1.704 127.719 1.704C132.327 1.704 134.631 2.216 134.631 3.24C134.631 3.90133 134.065 4.36 132.935 4.616C132.167 4.78667 131.111 4.94667 129.767 5.096C127.697 5.33067 125.852 5.672 124.231 6.12C124.231 7.57067 123.975 9.24533 123.463 11.144H123.655ZM150.432 1.448C150.837 1.448 151.381 1.832 152.064 2.6C152.768 3.34667 153.12 3.98667 153.12 4.52C153.12 4.75467 153.013 4.95733 152.8 5.128C152.586 5.29867 152.288 5.50133 151.904 5.736C151.541 5.97067 151.232 6.248 150.976 6.568C148.373 9.78933 146.432 12.2427 145.152 13.928C145.664 14.8453 146.389 16.104 147.328 17.704C148.266 19.304 148.938 20.4987 149.344 21.288C149.749 22.056 149.952 22.6533 149.952 23.08C149.952 23.4853 149.781 23.848 149.44 24.168C149.12 24.4667 148.746 24.616 148.32 24.616C147.189 24.616 145.248 22.312 142.496 17.704C141.088 19.7947 139.861 21.4693 138.816 22.728C137.77 23.9653 136.917 24.584 136.256 24.584C135.616 24.584 134.965 24.3493 134.304 23.88C133.642 23.4107 133.312 22.9627 133.312 22.536C133.312 22.3013 133.365 22.1307 133.472 22.024C133.77 21.7253 133.962 21.512 134.048 21.384C135.882 19.2933 137.92 16.648 140.16 13.448C138.944 11.1013 137.941 8.91467 137.152 6.888C136.362 4.84 135.968 3.368 135.968 2.472C135.968 1.55467 136.16 1.096 136.544 1.096C137.44 1.096 138.378 1.288 139.36 1.672C140.362 2.03467 140.864 2.46133 140.864 2.952C140.864 4.488 141.525 6.67467 142.848 9.512C144.96 6.22667 146.538 4.06133 147.584 3.016C148.629 1.97066 149.578 1.448 150.432 1.448ZM155.551 24.424C155.06 24.424 154.473 24.0187 153.791 23.208C153.108 22.376 152.767 21.704 152.767 21.192C152.767 20.68 153.023 19.624 153.535 18.024C155.113 13.1173 155.956 8.81867 156.062 5.128C155.337 4.36 154.975 3.752 154.975 3.304C154.975 2.6 155.807 1.93867 157.471 1.32C159.156 0.679999 160.756 0.359999 162.271 0.359999C164.831 0.359999 166.847 0.957332 168.319 2.152C169.812 3.34667 170.559 4.872 170.559 6.728C170.559 9.096 169.396 11.24 167.071 13.16C164.767 15.08 161.855 16.392 158.335 17.096C157.332 20.7013 156.671 22.824 156.351 23.464C156.052 24.104 155.785 24.424 155.551 24.424ZM166.015 6.824C166.015 6.14133 165.769 5.58667 165.279 5.16C164.788 4.712 164.127 4.488 163.295 4.488C162.463 4.488 161.311 4.88267 159.839 5.672C160.265 6.41867 160.479 7.09067 160.479 7.688C160.479 8.86133 160.169 10.6 159.551 12.904C161.471 12.136 163.028 11.2187 164.223 10.152C165.417 9.064 166.015 7.95467 166.015 6.824ZM177.561 11.144C178.692 11.144 179.908 11.0907 181.209 10.984C182.51 10.856 183.31 10.792 183.609 10.792C183.929 10.792 184.174 10.8667 184.345 11.016C184.537 11.1653 184.633 11.3467 184.633 11.56C184.633 12.4987 183.748 13.2453 181.977 13.8C180.206 14.3547 178.318 14.6747 176.313 14.76C175.481 17.3413 175.065 18.9733 175.065 19.656C175.065 20.0187 175.246 20.2 175.609 20.2C178.041 20.2 180.548 19.88 183.129 19.24C184.004 19.0053 184.505 18.888 184.633 18.888C185.038 18.888 185.241 19.176 185.241 19.752C185.241 20.52 184.676 21.2667 183.545 21.992C182.414 22.7173 180.996 23.2933 179.289 23.72C177.582 24.1467 175.908 24.36 174.265 24.36C173.284 24.36 172.398 23.9973 171.609 23.272C170.82 22.5253 170.425 21.6613 170.425 20.68C170.425 19.6773 170.969 17.1813 172.057 13.192C173.166 9.20267 173.753 6.19467 173.817 4.168C173.796 4.104 173.785 3.976 173.785 3.784C173.785 3.48533 173.828 3.25067 173.913 3.08C174.148 2.48266 174.798 2.10933 175.865 1.96C176.932 1.78933 178.852 1.704 181.625 1.704C186.233 1.704 188.537 2.216 188.537 3.24C188.537 3.90133 187.972 4.36 186.841 4.616C186.073 4.78667 185.017 4.94667 183.673 5.096C181.604 5.33067 179.758 5.672 178.137 6.12C178.137 7.57067 177.881 9.24533 177.369 11.144H177.561ZM205.394 23.432C205.394 24.3067 204.786 24.744 203.57 24.744C201.906 24.744 200.157 23.88 198.322 22.152C196.509 20.424 195.218 18.6213 194.45 16.744C194.109 17.768 193.874 18.4613 193.746 18.824C193.618 19.1867 193.426 19.7627 193.17 20.552C192.914 21.3413 192.711 21.928 192.562 22.312C192.434 22.696 192.285 23.1013 192.114 23.528C191.794 24.3387 191.485 24.744 191.186 24.744C190.695 24.744 190.098 24.3387 189.394 23.528C188.711 22.696 188.37 22.024 188.37 21.512C188.37 21 188.615 20.0507 189.106 18.664C190.557 14.4187 191.389 10.5467 191.602 7.048C191.197 6.728 190.834 6.28 190.514 5.704C190.194 5.128 190.034 4.648 190.034 4.264C190.034 3.624 190.855 2.952 192.498 2.248C194.162 1.544 196.071 1.192 198.226 1.192C200.402 1.192 202.215 1.704 203.666 2.728C205.117 3.752 205.842 5.08533 205.842 6.728C205.842 7.944 205.479 9.11733 204.754 10.248C204.05 11.3573 203.271 12.232 202.418 12.872C201.586 13.4907 200.807 14.056 200.082 14.568C199.378 15.08 199.026 15.4107 199.026 15.56C199.026 16.072 199.197 16.5627 199.538 17.032C199.879 17.48 200.359 18.0133 200.978 18.632C201.597 19.2293 202.13 19.7413 202.578 20.168C203.026 20.5733 203.389 20.9147 203.666 21.192C203.965 21.4693 204.253 21.7573 204.53 22.056C205.106 22.6107 205.394 23.0693 205.394 23.432ZM200.914 7.048C200.914 6.152 200.039 5.704 198.29 5.704C197.458 5.704 196.466 5.93867 195.314 6.408C195.847 7.21867 196.114 7.96533 196.114 8.648C196.114 9.88533 195.943 11.2507 195.602 12.744C195.837 12.5733 196.274 12.2747 196.914 11.848C197.554 11.4 198.045 11.048 198.386 10.792C198.749 10.5147 199.154 10.1627 199.602 9.736C200.477 8.904 200.914 8.008 200.914 7.048ZM214.309 5.704C212.005 5.832 210.746 5.896 210.533 5.896C210.021 5.896 209.509 5.58667 208.997 4.968C208.485 4.328 208.229 3.66667 208.229 2.984C208.229 1.93867 211.269 1.416 217.349 1.416C220.463 1.416 222.757 1.736 224.229 2.376C225.701 3.016 226.437 3.79467 226.437 4.712C226.437 4.98933 226.277 5.256 225.957 5.512C225.637 5.74667 225.231 5.864 224.741 5.864C224.25 5.864 223.354 5.832 222.053 5.768C220.751 5.704 219.567 5.66133 218.501 5.64C218.586 5.896 218.629 6.19467 218.629 6.536C218.629 6.87733 218.501 7.54933 218.245 8.552C218.01 9.55467 217.669 10.952 217.221 12.744C216.773 14.5147 216.282 16.6693 215.749 19.208C215.215 21.7253 214.842 23.2293 214.629 23.72C214.437 24.1893 214.245 24.424 214.053 24.424C213.605 24.424 213.039 24.0187 212.357 23.208C211.695 22.376 211.365 21.704 211.365 21.192C211.365 20.68 211.802 18.568 212.677 14.856C213.551 11.1227 214.095 8.072 214.309 5.704ZM239.779 14.28C239.779 14.8347 239.128 15.2933 237.827 15.656C236.803 15.9547 235.63 16.2427 234.307 16.52C232.984 16.776 231.875 17.0213 230.979 17.256C229.102 17.704 227.95 17.928 227.523 17.928C227.096 17.928 226.648 17.64 226.179 17.064C225.71 16.4667 225.475 15.9013 225.475 15.368C225.475 14.7707 226.712 14.2587 229.187 13.832C231.683 13.4053 234.403 13.192 237.347 13.192C238.968 13.192 239.779 13.5547 239.779 14.28ZM247.851 0.679998C248.384 0.679998 249.035 1.032 249.803 1.736C250.571 2.44 250.955 3.16533 250.955 3.912C250.955 5.96 249.899 9.928 247.787 15.816C247.062 17.8853 246.699 19.3253 246.699 20.136C246.699 20.2427 246.72 20.3067 246.763 20.328C246.806 20.3493 247.2 20.36 247.947 20.36C248.694 20.36 249.718 20.2533 251.019 20.04C252.342 19.8053 253.408 19.5813 254.219 19.368C255.051 19.1547 255.542 19.048 255.691 19.048C256.224 19.048 256.491 19.3893 256.491 20.072C256.491 21.416 255.467 22.504 253.419 23.336C251.392 24.1467 249.035 24.552 246.347 24.552C245.302 24.552 244.342 24.168 243.467 23.4C242.614 22.6107 242.187 21.7467 242.187 20.808C242.187 19.8693 242.976 16.84 244.555 11.72C246.134 6.57867 246.923 3.25067 246.923 1.736C246.923 1.032 247.232 0.679998 247.851 0.679998ZM266.28 11.144C267.41 11.144 268.626 11.0907 269.928 10.984C271.229 10.856 272.029 10.792 272.328 10.792C272.648 10.792 272.893 10.8667 273.064 11.016C273.256 11.1653 273.352 11.3467 273.352 11.56C273.352 12.4987 272.466 13.2453 270.696 13.8C268.925 14.3547 267.037 14.6747 265.032 14.76C264.2 17.3413 263.784 18.9733 263.784 19.656C263.784 20.0187 263.965 20.2 264.328 20.2C266.76 20.2 269.266 19.88 271.848 19.24C272.722 19.0053 273.224 18.888 273.352 18.888C273.757 18.888 273.96 19.176 273.96 19.752C273.96 20.52 273.394 21.2667 272.264 21.992C271.133 22.7173 269.714 23.2933 268.008 23.72C266.301 24.1467 264.626 24.36 262.984 24.36C262.002 24.36 261.117 23.9973 260.328 23.272C259.538 22.5253 259.144 21.6613 259.144 20.68C259.144 19.6773 259.688 17.1813 260.776 13.192C261.885 9.20267 262.472 6.19467 262.536 4.168C262.514 4.104 262.504 3.976 262.504 3.784C262.504 3.48533 262.546 3.25067 262.632 3.08C262.866 2.48266 263.517 2.10933 264.584 1.96C265.65 1.78933 267.57 1.704 270.344 1.704C274.952 1.704 277.256 2.216 277.256 3.24C277.256 3.90133 276.69 4.36 275.56 4.616C274.792 4.78667 273.736 4.94667 272.392 5.096C270.322 5.33067 268.477 5.672 266.856 6.12C266.856 7.57067 266.6 9.24533 266.088 11.144H266.28ZM292.353 1.16C292.95 1.16 293.547 1.384 294.145 1.832C294.763 2.25867 295.073 2.67466 295.073 3.08C295.073 3.48533 294.987 3.93333 294.817 4.424C294.667 4.91467 294.411 5.53333 294.049 6.28C293.707 7.00533 293.355 7.72 292.993 8.424C292.651 9.10667 292.193 10.0133 291.617 11.144C291.041 12.2533 290.539 13.2453 290.113 14.12C289.686 14.9947 289.206 16.0293 288.673 17.224C288.161 18.4187 287.734 19.4 287.393 20.168C287.051 20.9147 286.689 21.6507 286.305 22.376C285.558 23.8267 284.833 24.552 284.129 24.552C283.809 24.552 283.361 24.3173 282.785 23.848C282.23 23.3787 281.857 22.9093 281.665 22.44C281.046 20.7973 280.225 17.3733 279.201 12.168C278.177 6.96267 277.665 3.82667 277.665 2.76C277.665 1.69333 277.953 1.16 278.529 1.16C279.254 1.16 280.001 1.46933 280.769 2.088C281.537 2.70667 282.134 3.528 282.561 4.552C282.731 4.97867 282.891 5.88533 283.041 7.272C283.211 8.63733 283.403 10.344 283.617 12.392C283.851 14.4187 284.097 16.1573 284.353 17.608C286.507 11.7627 288.203 7.56 289.441 5C290.699 2.44 291.67 1.16 292.353 1.16ZM300.936 11.144C302.067 11.144 303.283 11.0907 304.584 10.984C305.885 10.856 306.685 10.792 306.984 10.792C307.304 10.792 307.549 10.8667 307.72 11.016C307.912 11.1653 308.008 11.3467 308.008 11.56C308.008 12.4987 307.123 13.2453 305.352 13.8C303.581 14.3547 301.693 14.6747 299.688 14.76C298.856 17.3413 298.44 18.9733 298.44 19.656C298.44 20.0187 298.621 20.2 298.984 20.2C301.416 20.2 303.923 19.88 306.504 19.24C307.379 19.0053 307.88 18.888 308.008 18.888C308.413 18.888 308.616 19.176 308.616 19.752C308.616 20.52 308.051 21.2667 306.92 21.992C305.789 22.7173 304.371 23.2933 302.664 23.72C300.957 24.1467 299.283 24.36 297.64 24.36C296.659 24.36 295.773 23.9973 294.984 23.272C294.195 22.5253 293.8 21.6613 293.8 20.68C293.8 19.6773 294.344 17.1813 295.432 13.192C296.541 9.20267 297.128 6.19467 297.192 4.168C297.171 4.104 297.16 3.976 297.16 3.784C297.16 3.48533 297.203 3.25067 297.288 3.08C297.523 2.48266 298.173 2.10933 299.24 1.96C300.307 1.78933 302.227 1.704 305 1.704C309.608 1.704 311.912 2.216 311.912 3.24C311.912 3.90133 311.347 4.36 310.216 4.616C309.448 4.78667 308.392 4.94667 307.048 5.096C304.979 5.33067 303.133 5.672 301.512 6.12C301.512 7.57067 301.256 9.24533 300.744 11.144H300.936ZM317.601 0.679998C318.134 0.679998 318.785 1.032 319.553 1.736C320.321 2.44 320.705 3.16533 320.705 3.912C320.705 5.96 319.649 9.928 317.537 15.816C316.812 17.8853 316.449 19.3253 316.449 20.136C316.449 20.2427 316.47 20.3067 316.513 20.328C316.556 20.3493 316.95 20.36 317.697 20.36C318.444 20.36 319.468 20.2533 320.769 20.04C322.092 19.8053 323.158 19.5813 323.969 19.368C324.801 19.1547 325.292 19.048 325.441 19.048C325.974 19.048 326.241 19.3893 326.241 20.072C326.241 21.416 325.217 22.504 323.169 23.336C321.142 24.1467 318.785 24.552 316.097 24.552C315.052 24.552 314.092 24.168 313.217 23.4C312.364 22.6107 311.937 21.7467 311.937 20.808C311.937 19.8693 312.726 16.84 314.305 11.72C315.884 6.57867 316.673 3.25067 316.673 1.736C316.673 1.032 316.982 0.679998 317.601 0.679998ZM354.454 1.096C355.052 1.096 355.702 1.62933 356.406 2.696C357.11 3.74133 357.462 4.60533 357.462 5.288C357.462 5.97066 357.324 6.312 357.046 6.312C356.918 6.312 356.641 6.26933 356.214 6.184C355.809 6.09867 355.457 6.056 355.158 6.056C354.092 6.056 352.844 6.73867 351.414 8.104C349.985 9.46933 348.758 11.1013 347.734 13C346.732 14.8987 346.23 16.5413 346.23 17.928C346.23 18.6107 346.337 19.112 346.55 19.432C346.764 19.7307 347.148 19.88 347.702 19.88C349.174 19.88 350.668 19.656 352.182 19.208C353.697 18.76 354.945 18.312 355.926 17.864C356.908 17.3947 357.462 17.16 357.59 17.16C357.74 17.16 357.878 17.288 358.006 17.544C358.156 17.7787 358.23 18.0667 358.23 18.408C358.23 19.1333 357.654 19.9973 356.502 21C355.35 21.9813 353.953 22.824 352.31 23.528C350.689 24.232 349.217 24.584 347.894 24.584C346.572 24.584 345.174 23.784 343.702 22.184C342.252 20.584 341.526 19.0587 341.526 17.608C341.526 15.5813 342.177 13.2773 343.478 10.696C344.78 8.09333 346.454 5.84267 348.502 3.944C350.572 2.04533 352.556 1.096 354.454 1.096ZM370.428 19.08C371.666 17.9707 372.743 16.584 373.66 14.92C374.578 13.2347 375.036 11.624 375.036 10.088C375.036 8.552 374.844 7.368 374.46 6.536C374.076 5.704 373.543 5.288 372.86 5.288C372.178 5.288 371.282 5.90667 370.172 7.144C369.084 8.36 368.092 9.96 367.196 11.944C366.322 13.928 365.884 15.8267 365.884 17.64C365.884 18.5573 366.012 19.304 366.268 19.88C366.524 20.4347 366.844 20.712 367.228 20.712C368.124 20.712 369.191 20.168 370.428 19.08ZM367.26 24.584C365.682 24.584 364.274 23.816 363.036 22.28C361.799 20.7227 361.18 19.176 361.18 17.64C361.18 15.6773 361.554 13.672 362.3 11.624C363.047 9.55467 363.975 7.77333 365.084 6.28C366.215 4.76533 367.452 3.528 368.796 2.568C370.14 1.58667 371.378 1.096 372.508 1.096C374.578 1.096 376.274 1.98133 377.596 3.752C378.919 5.50133 379.58 7.47467 379.58 9.672C379.58 11.8693 379.026 14.0987 377.916 16.36C376.807 18.6 375.271 20.5307 373.308 22.152C371.367 23.7733 369.351 24.584 367.26 24.584ZM396.737 0.999998C397.355 0.999998 398.038 1.32 398.785 1.96C399.553 2.6 399.937 3.12267 399.937 3.528C399.937 4.872 399.617 7.208 398.977 10.536C398.358 13.8427 397.558 17.0107 396.577 20.04C395.595 23.0693 394.71 24.584 393.921 24.584C393.601 24.584 393.185 24.4133 392.673 24.072C392.161 23.7093 391.819 23.2933 391.649 22.824C391.478 22.3333 391.147 21.3307 390.657 19.816C389.526 16.3387 388.459 13.4587 387.457 11.176C387.307 11.816 387.105 12.7227 386.849 13.896C386.614 15.0693 386.422 15.9973 386.273 16.68C386.123 17.3413 385.942 18.152 385.729 19.112C385.515 20.0507 385.323 20.7973 385.153 21.352C385.003 21.9067 384.833 22.4613 384.641 23.016C384.299 24.0613 383.979 24.584 383.681 24.584C383.254 24.584 382.699 24.2 382.017 23.432C381.334 22.6427 380.993 21.9707 380.993 21.416C380.993 20.84 381.601 17.864 382.817 12.488C384.054 7.112 384.726 3.74133 384.833 2.376C384.897 1.56533 385.142 1.16 385.569 1.16C385.931 1.16 386.39 1.37333 386.945 1.8C387.521 2.22667 388.011 2.74933 388.417 3.368C388.843 3.96533 389.601 5.93867 390.689 9.288C391.777 12.6373 392.641 15.0373 393.281 16.488C394.113 14.0133 394.881 10.28 395.585 5.288C395.862 3.304 396.043 2.09867 396.129 1.672C396.214 1.224 396.417 0.999998 396.737 0.999998ZM407.996 5.704C405.692 5.832 404.434 5.896 404.22 5.896C403.708 5.896 403.196 5.58667 402.684 4.968C402.172 4.328 401.916 3.66667 401.916 2.984C401.916 1.93867 404.956 1.416 411.036 1.416C414.151 1.416 416.444 1.736 417.916 2.376C419.388 3.016 420.124 3.79467 420.124 4.712C420.124 4.98933 419.964 5.256 419.644 5.512C419.324 5.74667 418.919 5.864 418.428 5.864C417.938 5.864 417.042 5.832 415.74 5.768C414.439 5.704 413.255 5.66133 412.188 5.64C412.274 5.896 412.316 6.19467 412.316 6.536C412.316 6.87733 412.188 7.54933 411.932 8.552C411.698 9.55467 411.356 10.952 410.908 12.744C410.46 14.5147 409.97 16.6693 409.436 19.208C408.903 21.7253 408.53 23.2293 408.316 23.72C408.124 24.1893 407.932 24.424 407.74 24.424C407.292 24.424 406.727 24.0187 406.044 23.208C405.383 22.376 405.052 21.704 405.052 21.192C405.052 20.68 405.49 18.568 406.364 14.856C407.239 11.1227 407.783 8.072 407.996 5.704ZM425.499 11.144C426.629 11.144 427.845 11.0907 429.147 10.984C430.448 10.856 431.248 10.792 431.547 10.792C431.867 10.792 432.112 10.8667 432.283 11.016C432.475 11.1653 432.571 11.3467 432.571 11.56C432.571 12.4987 431.685 13.2453 429.915 13.8C428.144 14.3547 426.256 14.6747 424.251 14.76C423.419 17.3413 423.003 18.9733 423.003 19.656C423.003 20.0187 423.184 20.2 423.547 20.2C425.979 20.2 428.485 19.88 431.067 19.24C431.941 19.0053 432.443 18.888 432.571 18.888C432.976 18.888 433.179 19.176 433.179 19.752C433.179 20.52 432.613 21.2667 431.483 21.992C430.352 22.7173 428.933 23.2933 427.227 23.72C425.52 24.1467 423.845 24.36 422.203 24.36C421.221 24.36 420.336 23.9973 419.547 23.272C418.757 22.5253 418.363 21.6613 418.363 20.68C418.363 19.6773 418.907 17.1813 419.995 13.192C421.104 9.20267 421.691 6.19467 421.755 4.168C421.733 4.104 421.723 3.976 421.723 3.784C421.723 3.48533 421.765 3.25067 421.851 3.08C422.085 2.48266 422.736 2.10933 423.803 1.96C424.869 1.78933 426.789 1.704 429.563 1.704C434.171 1.704 436.475 2.216 436.475 3.24C436.475 3.90133 435.909 4.36 434.779 4.616C434.011 4.78667 432.955 4.94667 431.611 5.096C429.541 5.33067 427.696 5.672 426.075 6.12C426.075 7.57067 425.819 9.24533 425.307 11.144H425.499ZM451.956 0.999998C452.574 0.999998 453.257 1.32 454.003 1.96C454.772 2.6 455.156 3.12267 455.156 3.528C455.156 4.872 454.836 7.208 454.196 10.536C453.577 13.8427 452.777 17.0107 451.796 20.04C450.814 23.0693 449.929 24.584 449.14 24.584C448.82 24.584 448.404 24.4133 447.892 24.072C447.38 23.7093 447.038 23.2933 446.868 22.824C446.697 22.3333 446.366 21.3307 445.876 19.816C444.745 16.3387 443.678 13.4587 442.676 11.176C442.526 11.816 442.324 12.7227 442.068 13.896C441.833 15.0693 441.641 15.9973 441.492 16.68C441.342 17.3413 441.161 18.152 440.948 19.112C440.734 20.0507 440.542 20.7973 440.372 21.352C440.222 21.9067 440.052 22.4613 439.86 23.016C439.518 24.0613 439.198 24.584 438.9 24.584C438.473 24.584 437.918 24.2 437.236 23.432C436.553 22.6427 436.212 21.9707 436.212 21.416C436.212 20.84 436.82 17.864 438.036 12.488C439.273 7.112 439.945 3.74133 440.052 2.376C440.116 1.56533 440.361 1.16 440.788 1.16C441.15 1.16 441.609 1.37333 442.164 1.8C442.74 2.22667 443.23 2.74933 443.635 3.368C444.062 3.96533 444.82 5.93867 445.908 9.288C446.996 12.6373 447.86 15.0373 448.5 16.488C449.332 14.0133 450.1 10.28 450.804 5.288C451.081 3.304 451.262 2.09867 451.347 1.672C451.433 1.224 451.636 0.999998 451.956 0.999998ZM463.215 5.704C460.911 5.832 459.652 5.896 459.439 5.896C458.927 5.896 458.415 5.58667 457.903 4.968C457.391 4.328 457.135 3.66667 457.135 2.984C457.135 1.93867 460.175 1.416 466.255 1.416C469.37 1.416 471.663 1.736 473.135 2.376C474.607 3.016 475.343 3.79467 475.343 4.712C475.343 4.98933 475.183 5.256 474.863 5.512C474.543 5.74667 474.138 5.864 473.647 5.864C473.156 5.864 472.26 5.832 470.959 5.768C469.658 5.704 468.474 5.66133 467.407 5.64C467.492 5.896 467.535 6.19467 467.535 6.536C467.535 6.87733 467.407 7.54933 467.151 8.552C466.916 9.55467 466.575 10.952 466.127 12.744C465.679 14.5147 465.188 16.6693 464.655 19.208C464.122 21.7253 463.748 23.2293 463.535 23.72C463.343 24.1893 463.151 24.424 462.959 24.424C462.511 24.424 461.946 24.0187 461.263 23.208C460.602 22.376 460.271 21.704 460.271 21.192C460.271 20.68 460.708 18.568 461.583 14.856C462.458 11.1227 463.002 8.072 463.215 5.704ZM90.0835 75.584C89.6568 75.584 89.0382 75.2533 88.2275 74.592C87.4382 73.9093 87.0435 73.2373 87.0435 72.576C87.0435 71.0187 87.2675 68.3307 87.7155 64.512C88.1635 60.6933 88.3875 57.024 88.3875 53.504C88.3875 52.608 88.6648 52.16 89.2195 52.16C89.9875 52.16 90.9048 52.5867 91.9715 53.44C93.0595 54.2933 93.6035 55.1467 93.6035 56C93.6035 56.2987 93.2515 58.1227 92.5475 61.472C91.8435 64.8 91.4382 67.4773 91.3315 69.504C92.3555 67.4347 93.5608 65.7067 94.9475 64.32C96.3555 62.9333 97.5075 62.24 98.4035 62.24C99.0435 62.24 99.4595 63.6587 99.6515 66.496C99.7368 67.5627 99.9075 68.544 100.164 69.44C100.42 70.3147 100.772 70.752 101.22 70.752C102.052 70.752 102.788 69.8667 103.428 68.096C104.089 66.304 104.42 64.4587 104.42 62.56C104.42 58.4427 103.289 56.384 101.028 56.384C100.366 56.384 99.7475 56.0427 99.1715 55.36C98.6168 54.6773 98.3395 54.0693 98.3395 53.536C98.3395 52.576 98.9262 52.096 100.1 52.096C101.678 52.096 103.054 52.3947 104.228 52.992C105.422 53.568 106.35 54.368 107.012 55.392C108.334 57.4187 108.996 59.9147 108.996 62.88C108.996 64.8853 108.644 66.8693 107.94 68.832C107.236 70.7733 106.254 72.384 104.996 73.664C103.758 74.944 102.436 75.584 101.028 75.584C98.4248 75.584 96.9422 73.376 96.5795 68.96L95.5875 70.368C93.2408 73.8453 91.4062 75.584 90.0835 75.584ZM120.585 70.08C121.822 68.9707 122.899 67.584 123.817 65.92C124.734 64.2347 125.193 62.624 125.193 61.088C125.193 59.552 125.001 58.368 124.617 57.536C124.233 56.704 123.699 56.288 123.017 56.288C122.334 56.288 121.438 56.9067 120.329 58.144C119.241 59.36 118.249 60.96 117.353 62.944C116.478 64.928 116.041 66.8267 116.041 68.64C116.041 69.5573 116.169 70.304 116.425 70.88C116.681 71.4347 117.001 71.712 117.385 71.712C118.281 71.712 119.347 71.168 120.585 70.08ZM117.417 75.584C115.838 75.584 114.43 74.816 113.193 73.28C111.955 71.7227 111.337 70.176 111.337 68.64C111.337 66.6773 111.71 64.672 112.457 62.624C113.203 60.5547 114.131 58.7733 115.241 57.28C116.371 55.7653 117.609 54.528 118.953 53.568C120.297 52.5867 121.534 52.096 122.665 52.096C124.734 52.096 126.43 52.9813 127.753 54.752C129.075 56.5013 129.737 58.4747 129.737 60.672C129.737 62.8693 129.182 65.0987 128.073 67.36C126.963 69.6 125.427 71.5307 123.465 73.152C121.523 74.7733 119.507 75.584 117.417 75.584ZM148.269 74.432C148.269 75.3067 147.661 75.744 146.445 75.744C144.781 75.744 143.032 74.88 141.197 73.152C139.384 71.424 138.093 69.6213 137.325 67.744C136.984 68.768 136.749 69.4613 136.621 69.824C136.493 70.1867 136.301 70.7627 136.045 71.552C135.789 72.3413 135.586 72.928 135.437 73.312C135.309 73.696 135.16 74.1013 134.989 74.528C134.669 75.3387 134.36 75.744 134.061 75.744C133.57 75.744 132.973 75.3387 132.269 74.528C131.586 73.696 131.245 73.024 131.245 72.512C131.245 72 131.49 71.0507 131.981 69.664C133.432 65.4187 134.264 61.5467 134.477 58.048C134.072 57.728 133.709 57.28 133.389 56.704C133.069 56.128 132.909 55.648 132.909 55.264C132.909 54.624 133.73 53.952 135.373 53.248C137.037 52.544 138.946 52.192 141.101 52.192C143.277 52.192 145.09 52.704 146.541 53.728C147.992 54.752 148.717 56.0853 148.717 57.728C148.717 58.944 148.354 60.1173 147.629 61.248C146.925 62.3573 146.146 63.232 145.293 63.872C144.461 64.4907 143.682 65.056 142.957 65.568C142.253 66.08 141.901 66.4107 141.901 66.56C141.901 67.072 142.072 67.5627 142.413 68.032C142.754 68.48 143.234 69.0133 143.853 69.632C144.472 70.2293 145.005 70.7413 145.453 71.168C145.901 71.5733 146.264 71.9147 146.541 72.192C146.84 72.4693 147.128 72.7573 147.405 73.056C147.981 73.6107 148.269 74.0693 148.269 74.432ZM143.789 58.048C143.789 57.152 142.914 56.704 141.165 56.704C140.333 56.704 139.341 56.9387 138.189 57.408C138.722 58.2187 138.989 58.9653 138.989 59.648C138.989 60.8853 138.818 62.2507 138.477 63.744C138.712 63.5733 139.149 63.2747 139.789 62.848C140.429 62.4 140.92 62.048 141.261 61.792C141.624 61.5147 142.029 61.1627 142.477 60.736C143.352 59.904 143.789 59.008 143.789 58.048ZM153.152 75.584H153.088C152.618 75.584 152.032 75.1573 151.328 74.304C150.624 73.4293 150.272 72.672 150.272 72.032C150.272 71.3707 150.89 68.448 152.128 63.264C153.386 58.08 154.016 54.8053 154.016 53.44C154.016 52.5867 154.325 52.16 154.944 52.16C155.456 52.16 156.074 52.672 156.8 53.696C157.525 54.6987 157.888 55.6587 157.888 56.576C157.888 57.1307 157.61 58.5493 157.056 60.832C158.805 58.5067 160.448 56.5653 161.984 55.008C163.52 53.4293 164.565 52.64 165.12 52.64C165.696 52.64 166.272 52.8853 166.848 53.376C167.424 53.8453 167.712 54.2613 167.712 54.624C167.712 54.9653 167.168 55.648 166.08 56.672C164.992 57.696 163.648 58.9973 162.048 60.576C160.448 62.1547 159.21 63.6267 158.336 64.992C158.336 66.6347 159.285 68.288 161.184 69.952C161.76 70.4427 162.528 70.9547 163.488 71.488C164.448 72 165.194 72.448 165.728 72.832C166.282 73.1947 166.56 73.568 166.56 73.952C166.56 75.04 165.792 75.584 164.256 75.584C162.72 75.584 161.066 74.9653 159.296 73.728C157.525 72.4693 156.202 70.8053 155.328 68.736C154.773 70.3147 154.432 71.4667 154.304 72.192C154.176 72.896 154.08 73.3653 154.016 73.6C153.973 73.8347 153.93 74.0267 153.888 74.176C153.845 74.304 153.802 74.4533 153.76 74.624C153.717 74.7947 153.674 74.9333 153.632 75.04C153.589 75.1253 153.546 75.2107 153.504 75.296C153.376 75.488 153.258 75.584 153.152 75.584ZM173.01 75.584C172.583 75.584 172.007 75.1467 171.282 74.272C170.556 73.376 170.194 72.7253 170.194 72.32C170.194 71.9147 170.716 68.9493 171.762 63.424C172.828 57.8773 173.383 54.4747 173.426 53.216C173.468 52.512 173.799 52.16 174.418 52.16C174.93 52.16 175.612 52.672 176.466 53.696C177.319 54.72 177.746 55.68 177.746 56.576C177.746 56.96 177.447 58.4107 176.85 60.928C176.274 63.424 175.879 65.1733 175.666 66.176C175.474 67.1573 175.303 68.0427 175.154 68.832C175.004 69.6 174.887 70.208 174.802 70.656C174.204 73.3867 173.735 74.9547 173.394 75.36C173.266 75.5093 173.138 75.584 173.01 75.584ZM195.237 52C195.855 52 196.538 52.32 197.285 52.96C198.053 53.6 198.437 54.1227 198.437 54.528C198.437 55.872 198.117 58.208 197.477 61.536C196.858 64.8427 196.058 68.0107 195.077 71.04C194.095 74.0693 193.21 75.584 192.421 75.584C192.101 75.584 191.685 75.4133 191.173 75.072C190.661 74.7093 190.319 74.2933 190.149 73.824C189.978 73.3333 189.647 72.3307 189.157 70.816C188.026 67.3387 186.959 64.4587 185.957 62.176C185.807 62.816 185.605 63.7227 185.349 64.896C185.114 66.0693 184.922 66.9973 184.773 67.68C184.623 68.3413 184.442 69.152 184.229 70.112C184.015 71.0507 183.823 71.7973 183.653 72.352C183.503 72.9067 183.333 73.4613 183.141 74.016C182.799 75.0613 182.479 75.584 182.181 75.584C181.754 75.584 181.199 75.2 180.517 74.432C179.834 73.6427 179.493 72.9707 179.493 72.416C179.493 71.84 180.101 68.864 181.317 63.488C182.554 58.112 183.226 54.7413 183.333 53.376C183.397 52.5653 183.642 52.16 184.069 52.16C184.431 52.16 184.89 52.3733 185.445 52.8C186.021 53.2267 186.511 53.7493 186.917 54.368C187.343 54.9653 188.101 56.9387 189.189 60.288C190.277 63.6373 191.141 66.0373 191.781 67.488C192.613 65.0133 193.381 61.28 194.085 56.288C194.362 54.304 194.543 53.0987 194.629 52.672C194.714 52.224 194.917 52 195.237 52ZM207.52 65.12C207.52 64.672 208.032 64.3093 209.056 64.032C210.08 63.7547 211.19 63.616 212.384 63.616C213.579 63.616 214.486 64.096 215.104 65.056C215.744 66.016 216.064 67.0827 216.064 68.256C216.064 69.4293 215.563 71.456 214.56 74.336C213.579 77.1947 212.726 78.624 212 78.624C211.702 78.624 211.446 78.528 211.232 78.336C211.04 78.1653 210.944 77.9413 210.944 77.664C210.944 76.128 211.371 73.9307 212.224 71.072C211.222 72.352 210.123 73.3867 208.928 74.176C207.755 74.9653 206.539 75.36 205.28 75.36C204.043 75.36 202.742 74.816 201.376 73.728C200.011 72.64 199.328 71.4453 199.328 70.144C199.328 67.84 200.011 65.2907 201.376 62.496C202.742 59.68 204.47 57.28 206.56 55.296C208.651 53.312 210.624 52.32 212.48 52.32C213.12 52.32 213.782 52.8213 214.464 53.824C215.168 54.8267 215.52 55.744 215.52 56.576C215.52 56.96 215.382 57.152 215.104 57.152C215.062 57.152 214.859 57.1093 214.496 57.024C214.134 56.9387 213.686 56.896 213.152 56.896C211.723 56.896 210.262 57.632 208.768 59.104C207.275 60.5547 206.059 62.3467 205.12 64.48C204.182 66.6133 203.712 68.6187 203.712 70.496C203.712 71.0507 204.075 71.328 204.8 71.328C205.803 71.328 207.03 70.88 208.48 69.984C209.952 69.088 211.083 68.0853 211.872 66.976C211.403 66.9973 210.827 67.008 210.144 67.008C209.483 67.008 208.875 66.8053 208.32 66.4C207.787 65.9947 207.52 65.568 207.52 65.12ZM235.855 71.232C239.673 70.528 242.564 70.176 244.527 70.176C246.511 70.176 247.503 70.6027 247.503 71.456C247.503 72.2667 245.807 73.1413 242.415 74.08C239.044 75.0187 236.452 75.488 234.639 75.488C233.892 75.488 232.985 75.008 231.919 74.048C230.852 73.088 230.319 72.2347 230.319 71.488C230.319 70.9973 231.684 69.632 234.415 67.392C235.545 66.4533 236.676 65.472 237.807 64.448C238.937 63.4027 239.897 62.336 240.687 61.248C241.497 60.16 241.903 59.1893 241.903 58.336C241.903 57.4613 241.497 57.024 240.687 57.024C240.068 57.024 239.513 57.2587 239.023 57.728C238.553 58.176 238.18 58.6347 237.903 59.104C237.647 59.552 237.455 59.776 237.327 59.776C236.772 59.776 236.068 59.4773 235.215 58.88C234.383 58.2613 233.967 57.728 233.967 57.28C233.967 56.064 234.607 54.912 235.887 53.824C237.188 52.7147 238.745 52.16 240.559 52.16C242.393 52.16 243.833 52.7253 244.879 53.856C245.924 54.9653 246.447 56.384 246.447 58.112C246.447 60.4373 245.444 62.7733 243.439 65.12C241.455 67.4667 238.927 69.504 235.855 71.232ZM262.095 57.472C262.628 57.472 263.343 57.8667 264.239 58.656C265.156 59.4453 265.615 60.096 265.615 60.608C265.615 61.8453 264.857 64.8213 263.343 69.536C261.828 74.2293 260.687 76.576 259.919 76.576C259.513 76.576 259.055 76.2773 258.543 75.68C258.052 75.0613 257.807 74.5387 257.807 74.112C257.807 73.6853 257.86 73.2373 257.967 72.768C258.073 72.2773 258.18 71.8293 258.287 71.424C258.415 70.9973 258.596 70.4 258.831 69.632C259.087 68.864 259.289 68.2453 259.439 67.776C257.903 68.3093 256.388 68.576 254.895 68.576C253.423 68.576 252.271 68.1707 251.439 67.36C250.628 66.5493 250.223 65.4613 250.223 64.096C250.223 63.1147 250.745 61.6213 251.791 59.616C252.857 57.6107 254.031 55.808 255.311 54.208C256.591 52.608 257.497 51.808 258.031 51.808C258.585 51.808 259.151 52.0747 259.727 52.608C260.324 53.1413 260.623 53.6427 260.623 54.112C260.623 54.56 259.62 56.2027 257.615 59.04C255.631 61.8773 254.639 63.552 254.639 64.064C254.639 64.2773 254.681 64.416 254.767 64.48C254.852 64.544 255.044 64.576 255.343 64.576C256.068 64.576 257.113 64.288 258.479 63.712C259.844 63.136 260.58 62.8373 260.687 62.816C260.964 61.3013 261.103 59.84 261.103 58.432C261.103 57.792 261.433 57.472 262.095 57.472ZM268.492 78.56C268.023 78.56 267.49 78.1867 266.892 77.44C266.295 76.6933 265.996 76.0213 265.996 75.424C265.996 74.8267 266.604 72.9067 267.82 69.664C269.058 66.4213 270.53 62.6773 272.236 58.432C273.943 54.1653 274.946 51.6053 275.244 50.752C275.543 49.8987 275.714 49.408 275.756 49.28C275.863 48.9387 275.959 48.7573 276.044 48.736C276.236 48.6293 276.407 48.576 276.556 48.576C276.983 48.576 277.602 49.088 278.412 50.112C279.223 51.136 279.628 51.9893 279.628 52.672C279.628 53.312 279.394 54.208 278.924 55.36C278.476 56.512 278.071 57.504 277.708 58.336C276.172 61.8987 275.01 64.6613 274.22 66.624C270.935 74.5813 269.026 78.56 268.492 78.56ZM285.876 56.544L280.788 56.992C280.254 56.992 279.636 56.5333 278.932 55.616C278.249 54.6987 277.908 53.9947 277.908 53.504C277.908 52.6933 280.201 52.288 284.788 52.288C287.348 52.288 288.798 52.448 289.14 52.768C289.63 53.216 290.089 53.888 290.516 54.784C290.964 55.6587 291.188 56.4693 291.188 57.216C291.188 57.6427 290.953 58.2827 290.484 59.136C290.036 59.9893 289.684 60.6507 289.428 61.12C289.172 61.568 288.798 62.1973 288.308 63.008C287.838 63.7973 287.401 64.5333 286.996 65.216C286.612 65.8773 286.078 66.848 285.396 68.128C284.713 69.3867 284.148 70.432 283.7 71.264C283.273 72.0747 282.825 72.8747 282.356 73.664C281.46 75.2213 280.766 76 280.276 76C279.806 76 279.326 75.7013 278.836 75.104C278.366 74.5067 278.132 73.8773 278.132 73.216C278.132 72.5333 278.59 71.328 279.508 69.6C280.446 67.872 281.46 66.1653 282.548 64.48C285.513 59.9787 286.996 57.44 286.996 56.864C286.996 56.6507 286.622 56.544 285.876 56.544ZM310.434 56.704C308.13 56.832 306.871 56.896 306.658 56.896C306.146 56.896 305.634 56.5867 305.122 55.968C304.61 55.328 304.354 54.6667 304.354 53.984C304.354 52.9387 307.394 52.416 313.474 52.416C316.588 52.416 318.882 52.736 320.354 53.376C321.826 54.016 322.562 54.7947 322.562 55.712C322.562 55.9893 322.402 56.256 322.082 56.512C321.762 56.7467 321.356 56.864 320.866 56.864C320.375 56.864 319.479 56.832 318.178 56.768C316.876 56.704 315.692 56.6613 314.626 56.64C314.711 56.896 314.754 57.1947 314.754 57.536C314.754 57.8773 314.626 58.5493 314.37 59.552C314.135 60.5547 313.794 61.952 313.346 63.744C312.898 65.5147 312.407 67.6693 311.874 70.208C311.34 72.7253 310.967 74.2293 310.754 74.72C310.562 75.1893 310.37 75.424 310.178 75.424C309.73 75.424 309.164 75.0187 308.482 74.208C307.82 73.376 307.49 72.704 307.49 72.192C307.49 71.68 307.927 69.568 308.802 65.856C309.676 62.1227 310.22 59.072 310.434 56.704ZM330.272 70.08C331.509 68.9707 332.587 67.584 333.504 65.92C334.421 64.2347 334.88 62.624 334.88 61.088C334.88 59.552 334.688 58.368 334.304 57.536C333.92 56.704 333.387 56.288 332.704 56.288C332.021 56.288 331.125 56.9067 330.016 58.144C328.928 59.36 327.936 60.96 327.04 62.944C326.165 64.928 325.728 66.8267 325.728 68.64C325.728 69.5573 325.856 70.304 326.112 70.88C326.368 71.4347 326.688 71.712 327.072 71.712C327.968 71.712 329.035 71.168 330.272 70.08ZM327.104 75.584C325.525 75.584 324.117 74.816 322.88 73.28C321.643 71.7227 321.024 70.176 321.024 68.64C321.024 66.6773 321.397 64.672 322.144 62.624C322.891 60.5547 323.819 58.7733 324.928 57.28C326.059 55.7653 327.296 54.528 328.64 53.568C329.984 52.5867 331.221 52.096 332.352 52.096C334.421 52.096 336.117 52.9813 337.44 54.752C338.763 56.5013 339.424 58.4747 339.424 60.672C339.424 62.8693 338.869 65.0987 337.76 67.36C336.651 69.6 335.115 71.5307 333.152 73.152C331.211 74.7733 329.195 75.584 327.104 75.584ZM370.269 74.432C370.269 75.3067 369.661 75.744 368.445 75.744C366.781 75.744 365.032 74.88 363.197 73.152C361.384 71.424 360.093 69.6213 359.325 67.744C358.984 68.768 358.749 69.4613 358.621 69.824C358.493 70.1867 358.301 70.7627 358.045 71.552C357.789 72.3413 357.586 72.928 357.437 73.312C357.309 73.696 357.16 74.1013 356.989 74.528C356.669 75.3387 356.36 75.744 356.061 75.744C355.57 75.744 354.973 75.3387 354.269 74.528C353.586 73.696 353.245 73.024 353.245 72.512C353.245 72 353.49 71.0507 353.981 69.664C355.432 65.4187 356.264 61.5467 356.477 58.048C356.072 57.728 355.709 57.28 355.389 56.704C355.069 56.128 354.909 55.648 354.909 55.264C354.909 54.624 355.73 53.952 357.373 53.248C359.037 52.544 360.946 52.192 363.101 52.192C365.277 52.192 367.09 52.704 368.541 53.728C369.992 54.752 370.717 56.0853 370.717 57.728C370.717 58.944 370.354 60.1173 369.629 61.248C368.925 62.3573 368.146 63.232 367.293 63.872C366.461 64.4907 365.682 65.056 364.957 65.568C364.253 66.08 363.901 66.4107 363.901 66.56C363.901 67.072 364.072 67.5627 364.413 68.032C364.754 68.48 365.234 69.0133 365.853 69.632C366.472 70.2293 367.005 70.7413 367.453 71.168C367.901 71.5733 368.264 71.9147 368.541 72.192C368.84 72.4693 369.128 72.7573 369.405 73.056C369.981 73.6107 370.269 74.0693 370.269 74.432ZM365.789 58.048C365.789 57.152 364.914 56.704 363.165 56.704C362.333 56.704 361.341 56.9387 360.189 57.408C360.722 58.2187 360.989 58.9653 360.989 59.648C360.989 60.8853 360.818 62.2507 360.477 63.744C360.712 63.5733 361.149 63.2747 361.789 62.848C362.429 62.4 362.92 62.048 363.261 61.792C363.624 61.5147 364.029 61.1627 364.477 60.736C365.352 59.904 365.789 59.008 365.789 58.048ZM387.632 63.584C388.485 63.584 389.093 63.6693 389.456 63.84C389.84 63.9893 390.032 64.2773 390.032 64.704C390.032 65.28 389.104 65.8667 387.248 66.464C387.29 68.0853 387.312 69.6427 387.312 71.136C387.312 72.608 387.194 73.7173 386.96 74.464C386.725 75.1893 386.352 75.552 385.84 75.552C385.328 75.552 384.922 75.296 384.624 74.784C384.346 74.2507 384.112 73.3867 383.92 72.192C383.749 70.9973 383.568 69.4187 383.376 67.456C381.2 67.9467 379.632 68.3413 378.672 68.64C377.008 73.248 375.898 75.552 375.344 75.552C374.896 75.552 374.298 75.2533 373.552 74.656C372.826 74.0587 372.464 73.44 372.464 72.8C372.464 72.4373 372.88 71.3067 373.712 69.408C373.349 69.1733 373.029 68.8427 372.752 68.416C372.496 67.968 372.368 67.5413 372.368 67.136C372.368 66.432 373.424 65.76 375.536 65.12C375.706 64.6933 375.877 64.2133 376.048 63.68C376.24 63.1253 376.698 61.8453 377.424 59.84C378.17 57.8347 378.757 56.16 379.184 54.816C379.376 54.176 380.037 53.5787 381.168 53.024C382.32 52.4693 383.216 52.192 383.856 52.192C384.602 52.192 385.264 53.2267 385.84 55.296C386.437 57.3653 386.853 60.128 387.088 63.584H387.632ZM380.24 64.128C380.88 64.0427 381.808 63.936 383.024 63.808C382.96 63.1893 382.853 62.1333 382.704 60.64C382.576 59.1467 382.48 58.0693 382.416 57.408C382.053 58.6027 381.328 60.8427 380.24 64.128ZM408.268 52C408.887 52 409.569 52.32 410.316 52.96C411.084 53.6 411.468 54.1227 411.468 54.528C411.468 55.872 411.148 58.208 410.508 61.536C409.889 64.8427 409.089 68.0107 408.108 71.04C407.127 74.0693 406.241 75.584 405.452 75.584C405.132 75.584 404.716 75.4133 404.204 75.072C403.692 74.7093 403.351 74.2933 403.18 73.824C403.009 73.3333 402.679 72.3307 402.188 70.816C401.057 67.3387 399.991 64.4587 398.988 62.176C398.839 62.816 398.636 63.7227 398.38 64.896C398.145 66.0693 397.953 66.9973 397.804 67.68C397.655 68.3413 397.473 69.152 397.26 70.112C397.047 71.0507 396.855 71.7973 396.684 72.352C396.535 72.9067 396.364 73.4613 396.172 74.016C395.831 75.0613 395.511 75.584 395.212 75.584C394.785 75.584 394.231 75.2 393.548 74.432C392.865 73.6427 392.524 72.9707 392.524 72.416C392.524 71.84 393.132 68.864 394.348 63.488C395.585 58.112 396.257 54.7413 396.364 53.376C396.428 52.5653 396.673 52.16 397.1 52.16C397.463 52.16 397.921 52.3733 398.476 52.8C399.052 53.2267 399.543 53.7493 399.948 54.368C400.375 54.9653 401.132 56.9387 402.22 60.288C403.308 63.6373 404.172 66.0373 404.812 67.488C405.644 65.0133 406.412 61.28 407.116 56.288C407.393 54.304 407.575 53.0987 407.66 52.672C407.745 52.224 407.948 52 408.268 52ZM415.496 75.584H415.432C414.962 75.584 414.376 75.1573 413.672 74.304C412.968 73.4293 412.616 72.672 412.616 72.032C412.616 71.3707 413.234 68.448 414.472 63.264C415.73 58.08 416.36 54.8053 416.36 53.44C416.36 52.5867 416.669 52.16 417.288 52.16C417.8 52.16 418.418 52.672 419.144 53.696C419.869 54.6987 420.232 55.6587 420.232 56.576C420.232 57.1307 419.954 58.5493 419.4 60.832C421.149 58.5067 422.792 56.5653 424.328 55.008C425.864 53.4293 426.909 52.64 427.464 52.64C428.04 52.64 428.616 52.8853 429.192 53.376C429.768 53.8453 430.056 54.2613 430.056 54.624C430.056 54.9653 429.512 55.648 428.424 56.672C427.336 57.696 425.992 58.9973 424.392 60.576C422.792 62.1547 421.554 63.6267 420.68 64.992C420.68 66.6347 421.629 68.288 423.528 69.952C424.104 70.4427 424.872 70.9547 425.832 71.488C426.792 72 427.538 72.448 428.072 72.832C428.626 73.1947 428.904 73.568 428.904 73.952C428.904 75.04 428.136 75.584 426.6 75.584C425.064 75.584 423.41 74.9653 421.64 73.728C419.869 72.4693 418.546 70.8053 417.672 68.736C417.117 70.3147 416.776 71.4667 416.648 72.192C416.52 72.896 416.424 73.3653 416.36 73.6C416.317 73.8347 416.274 74.0267 416.232 74.176C416.189 74.304 416.146 74.4533 416.104 74.624C416.061 74.7947 416.018 74.9333 415.976 75.04C415.933 75.1253 415.89 75.2107 415.848 75.296C415.72 75.488 415.602 75.584 415.496 75.584ZM452.914 63.072C453.298 63.072 453.97 62.1547 454.93 60.32C455.911 58.4853 456.903 56.6613 457.906 54.848C458.909 53.0133 459.655 52.096 460.146 52.096C460.871 52.096 461.469 52.4267 461.938 53.088C462.429 53.7493 462.674 54.5387 462.674 55.456C462.674 56.096 462.119 57.3333 461.01 59.168C459.901 60.9813 458.493 63.232 456.786 65.92C455.079 68.608 453.767 70.8907 452.85 72.768C452.573 73.3653 452.125 73.984 451.506 74.624C450.887 75.264 450.29 75.584 449.714 75.584C448.861 75.584 448.434 74.9013 448.434 73.536C448.434 72.7253 449.245 70.8373 450.866 67.872C451.122 67.4027 451.303 67.0507 451.41 66.816C450.471 66.4533 449.618 65.856 448.85 65.024C448.082 64.192 447.474 63.2533 447.026 62.208C446.087 60.0107 445.618 57.8773 445.618 55.808C445.618 54.528 445.757 53.5893 446.034 52.992C446.333 52.3947 446.93 52.096 447.826 52.096C448.295 52.096 448.647 52.4267 448.882 53.088C449.117 53.728 449.33 54.656 449.522 55.872C449.714 57.088 449.981 58.1653 450.322 59.104C450.685 60.0213 451.122 60.9173 451.634 61.792C452.167 62.6453 452.594 63.072 452.914 63.072ZM471.46 70.08C472.697 68.9707 473.774 67.584 474.692 65.92C475.609 64.2347 476.068 62.624 476.068 61.088C476.068 59.552 475.876 58.368 475.492 57.536C475.108 56.704 474.574 56.288 473.892 56.288C473.209 56.288 472.313 56.9067 471.204 58.144C470.116 59.36 469.124 60.96 468.228 62.944C467.353 64.928 466.916 66.8267 466.916 68.64C466.916 69.5573 467.044 70.304 467.3 70.88C467.556 71.4347 467.876 71.712 468.26 71.712C469.156 71.712 470.222 71.168 471.46 70.08ZM468.292 75.584C466.713 75.584 465.305 74.816 464.068 73.28C462.83 71.7227 462.212 70.176 462.212 68.64C462.212 66.6773 462.585 64.672 463.332 62.624C464.078 60.5547 465.006 58.7733 466.116 57.28C467.246 55.7653 468.484 54.528 469.828 53.568C471.172 52.5867 472.409 52.096 473.54 52.096C475.609 52.096 477.305 52.9813 478.628 54.752C479.95 56.5013 480.612 58.4747 480.612 60.672C480.612 62.8693 480.057 65.0987 478.948 67.36C477.838 69.6 476.302 71.5307 474.34 73.152C472.398 74.7733 470.382 75.584 468.292 75.584ZM486.44 52.096C486.973 52.096 487.645 52.48 488.456 53.248C489.288 54.016 489.704 54.7733 489.704 55.52C489.704 56.2453 489.32 58.144 488.552 61.216C487.784 64.288 487.4 66.4107 487.4 67.584C487.4 68.736 487.539 69.6213 487.816 70.24C488.115 70.8587 488.52 71.168 489.032 71.168C489.565 71.168 490.184 70.7947 490.888 70.048C491.592 69.28 492.264 68.2987 492.904 67.104C493.565 65.888 494.109 64.448 494.536 62.784C494.984 61.0987 495.208 59.5413 495.208 58.112C495.208 56.6613 495.133 55.4987 494.984 54.624C494.856 53.7493 494.792 53.2267 494.792 53.056C494.792 52.3947 495.069 52.064 495.624 52.064C496.307 52.064 497.181 52.64 498.248 53.792C499.336 54.944 499.88 56.32 499.88 57.92C499.88 59.4987 499.603 61.3227 499.048 63.392C498.493 65.44 497.747 67.3813 496.808 69.216C495.869 71.0507 494.675 72.576 493.224 73.792C491.795 75.008 490.323 75.616 488.808 75.616C487.315 75.616 485.96 74.8267 484.744 73.248C483.528 71.6693 482.92 70.0587 482.92 68.416C482.92 66.7733 483.133 64.8747 483.56 62.72C483.987 60.544 484.413 58.592 484.84 56.864C485.267 55.136 485.48 53.9093 485.48 53.184C485.48 52.4587 485.8 52.096 486.44 52.096ZM517.048 75.584C516.6 75.584 515.97 75.0827 515.16 74.08C514.349 73.056 513.944 72.2773 513.944 71.744C513.944 71.1893 514.264 69.536 514.904 66.784C514.392 66.272 514.136 65.632 514.136 64.864C514.136 64.4373 514.648 64.0107 515.672 63.584C517.016 58.1227 517.688 54.6667 517.688 53.216C517.688 52.512 517.997 52.16 518.616 52.16C519.128 52.16 519.789 52.672 520.6 53.696C521.432 54.72 521.848 55.68 521.848 56.576C521.848 57.152 521.464 59.072 520.696 62.336C522.53 62.016 524.354 61.824 526.168 61.76C527.192 57.472 527.704 54.624 527.704 53.216C527.704 52.512 528.013 52.16 528.632 52.16C529.144 52.16 529.805 52.672 530.616 53.696C531.448 54.72 531.864 55.68 531.864 56.576C531.864 57.024 531.448 58.8587 530.616 62.08C531.682 62.336 532.216 62.752 532.216 63.328C532.216 63.9893 531.426 64.512 529.848 64.896C529.08 67.84 528.578 69.792 528.344 70.752C528.109 71.6907 527.928 72.4053 527.8 72.896C527.693 73.3653 527.576 73.824 527.448 74.272C527.213 75.1467 526.989 75.584 526.776 75.584C526.264 75.584 525.645 75.1787 524.92 74.368C524.216 73.5573 523.864 72.7467 523.864 71.936C523.864 71.4667 524.312 69.3867 525.208 65.696C522.754 66.1013 520.866 66.4747 519.544 66.816C518.882 69.3547 518.445 71.1253 518.232 72.128C518.018 73.1093 517.848 73.824 517.72 74.272C517.485 75.1467 517.261 75.584 517.048 75.584ZM537.604 75.584C537.177 75.584 536.601 75.1467 535.876 74.272C535.15 73.376 534.788 72.7253 534.788 72.32C534.788 71.9147 535.31 68.9493 536.356 63.424C537.422 57.8773 537.977 54.4747 538.02 53.216C538.062 52.512 538.393 52.16 539.012 52.16C539.524 52.16 540.206 52.672 541.06 53.696C541.913 54.72 542.34 55.68 542.34 56.576C542.34 56.96 542.041 58.4107 541.444 60.928C540.868 63.424 540.473 65.1733 540.26 66.176C540.068 67.1573 539.897 68.0427 539.748 68.832C539.598 69.6 539.481 70.208 539.396 70.656C538.798 73.3867 538.329 74.9547 537.988 75.36C537.86 75.5093 537.732 75.584 537.604 75.584ZM551.927 65.12C551.927 64.672 552.439 64.3093 553.463 64.032C554.487 63.7547 555.596 63.616 556.791 63.616C557.985 63.616 558.892 64.096 559.51 65.056C560.151 66.016 560.471 67.0827 560.471 68.256C560.471 69.4293 559.969 71.456 558.967 74.336C557.985 77.1947 557.132 78.624 556.407 78.624C556.108 78.624 555.852 78.528 555.639 78.336C555.447 78.1653 555.351 77.9413 555.351 77.664C555.351 76.128 555.777 73.9307 556.631 71.072C555.628 72.352 554.529 73.3867 553.335 74.176C552.161 74.9653 550.945 75.36 549.687 75.36C548.449 75.36 547.148 74.816 545.783 73.728C544.417 72.64 543.735 71.4453 543.735 70.144C543.735 67.84 544.417 65.2907 545.783 62.496C547.148 59.68 548.876 57.28 550.967 55.296C553.057 53.312 555.031 52.32 556.887 52.32C557.527 52.32 558.188 52.8213 558.871 53.824C559.575 54.8267 559.927 55.744 559.927 56.576C559.927 56.96 559.788 57.152 559.51 57.152C559.468 57.152 559.265 57.1093 558.903 57.024C558.54 56.9387 558.092 56.896 557.559 56.896C556.129 56.896 554.668 57.632 553.175 59.104C551.681 60.5547 550.465 62.3467 549.527 64.48C548.588 66.6133 548.119 68.6187 548.119 70.496C548.119 71.0507 548.481 71.328 549.207 71.328C550.209 71.328 551.436 70.88 552.887 69.984C554.359 69.088 555.489 68.0853 556.279 66.976C555.809 66.9973 555.233 67.008 554.551 67.008C553.889 67.008 553.281 66.8053 552.727 66.4C552.193 65.9947 551.927 65.568 551.927 65.12ZM566.86 75.584C566.412 75.584 565.783 75.0827 564.972 74.08C564.162 73.056 563.756 72.2773 563.756 71.744C563.756 71.1893 564.076 69.536 564.716 66.784C564.204 66.272 563.948 65.632 563.948 64.864C563.948 64.4373 564.46 64.0107 565.484 63.584C566.828 58.1227 567.5 54.6667 567.5 53.216C567.5 52.512 567.81 52.16 568.428 52.16C568.94 52.16 569.602 52.672 570.412 53.696C571.244 54.72 571.66 55.68 571.66 56.576C571.66 57.152 571.276 59.072 570.508 62.336C572.343 62.016 574.167 61.824 575.98 61.76C577.004 57.472 577.516 54.624 577.516 53.216C577.516 52.512 577.826 52.16 578.444 52.16C578.956 52.16 579.618 52.672 580.428 53.696C581.26 54.72 581.676 55.68 581.676 56.576C581.676 57.024 581.26 58.8587 580.428 62.08C581.495 62.336 582.028 62.752 582.028 63.328C582.028 63.9893 581.239 64.512 579.66 64.896C578.892 67.84 578.391 69.792 578.156 70.752C577.922 71.6907 577.74 72.4053 577.612 72.896C577.506 73.3653 577.388 73.824 577.26 74.272C577.026 75.1467 576.802 75.584 576.588 75.584C576.076 75.584 575.458 75.1787 574.732 74.368C574.028 73.5573 573.676 72.7467 573.676 71.936C573.676 71.4667 574.124 69.3867 575.02 65.696C572.567 66.1013 570.679 66.4747 569.356 66.816C568.695 69.3547 568.258 71.1253 568.044 72.128C567.831 73.1093 567.66 73.824 567.532 74.272C567.298 75.1467 567.074 75.584 566.86 75.584ZM590.936 62.144C592.067 62.144 593.283 62.0907 594.584 61.984C595.885 61.856 596.685 61.792 596.984 61.792C597.304 61.792 597.549 61.8667 597.72 62.016C597.912 62.1653 598.008 62.3467 598.008 62.56C598.008 63.4987 597.123 64.2453 595.352 64.8C593.581 65.3547 591.693 65.6747 589.688 65.76C588.856 68.3413 588.44 69.9733 588.44 70.656C588.44 71.0187 588.621 71.2 588.984 71.2C591.416 71.2 593.923 70.88 596.504 70.24C597.379 70.0053 597.88 69.888 598.008 69.888C598.413 69.888 598.616 70.176 598.616 70.752C598.616 71.52 598.051 72.2667 596.92 72.992C595.789 73.7173 594.371 74.2933 592.664 74.72C590.957 75.1467 589.283 75.36 587.64 75.36C586.659 75.36 585.773 74.9973 584.984 74.272C584.195 73.5253 583.8 72.6613 583.8 71.68C583.8 70.6773 584.344 68.1813 585.432 64.192C586.541 60.2027 587.128 57.1947 587.192 55.168C587.171 55.104 587.16 54.976 587.16 54.784C587.16 54.4853 587.203 54.2507 587.288 54.08C587.523 53.4827 588.173 53.1093 589.24 52.96C590.307 52.7893 592.227 52.704 595 52.704C599.608 52.704 601.912 53.216 601.912 54.24C601.912 54.9013 601.347 55.36 600.216 55.616C599.448 55.7867 598.392 55.9467 597.048 56.096C594.979 56.3307 593.133 56.672 591.512 57.12C591.512 58.5707 591.256 60.2453 590.744 62.144H590.936ZM618.769 74.432C618.769 75.3067 618.161 75.744 616.945 75.744C615.281 75.744 613.532 74.88 611.697 73.152C609.884 71.424 608.593 69.6213 607.825 67.744C607.484 68.768 607.249 69.4613 607.121 69.824C606.993 70.1867 606.801 70.7627 606.545 71.552C606.289 72.3413 606.086 72.928 605.937 73.312C605.809 73.696 605.66 74.1013 605.489 74.528C605.169 75.3387 604.86 75.744 604.561 75.744C604.07 75.744 603.473 75.3387 602.769 74.528C602.086 73.696 601.745 73.024 601.745 72.512C601.745 72 601.99 71.0507 602.481 69.664C603.932 65.4187 604.764 61.5467 604.977 58.048C604.572 57.728 604.209 57.28 603.889 56.704C603.569 56.128 603.409 55.648 603.409 55.264C603.409 54.624 604.23 53.952 605.873 53.248C607.537 52.544 609.446 52.192 611.601 52.192C613.777 52.192 615.59 52.704 617.041 53.728C618.492 54.752 619.217 56.0853 619.217 57.728C619.217 58.944 618.854 60.1173 618.129 61.248C617.425 62.3573 616.646 63.232 615.793 63.872C614.961 64.4907 614.182 65.056 613.457 65.568C612.753 66.08 612.401 66.4107 612.401 66.56C612.401 67.072 612.572 67.5627 612.913 68.032C613.254 68.48 613.734 69.0133 614.353 69.632C614.972 70.2293 615.505 70.7413 615.953 71.168C616.401 71.5733 616.764 71.9147 617.041 72.192C617.34 72.4693 617.628 72.7573 617.905 73.056C618.481 73.6107 618.769 74.0693 618.769 74.432ZM614.289 58.048C614.289 57.152 613.414 56.704 611.665 56.704C610.833 56.704 609.841 56.9387 608.689 57.408C609.222 58.2187 609.489 58.9653 609.489 59.648C609.489 60.8853 609.318 62.2507 608.977 63.744C609.212 63.5733 609.649 63.2747 610.289 62.848C610.929 62.4 611.42 62.048 611.761 61.792C612.124 61.5147 612.529 61.1627 612.977 60.736C613.852 59.904 614.289 59.008 614.289 58.048ZM175.031 119.96C175.031 121.773 174.167 123.331 172.439 124.632C170.711 125.933 168.737 126.584 166.519 126.584C164.3 126.584 162.508 126.04 161.143 124.952C159.799 123.843 159.127 122.701 159.127 121.528C159.127 120.355 159.457 119.768 160.118 119.768C160.631 119.768 161.164 120.024 161.719 120.536C162.273 121.048 162.892 121.56 163.575 122.072C164.279 122.584 165.068 122.84 165.943 122.84C166.817 122.84 167.809 122.477 168.919 121.752C170.028 121.027 170.583 120.419 170.583 119.928C170.583 119.437 169.975 118.616 168.759 117.464C167.564 116.312 166.359 115.128 165.143 113.912C163.948 112.675 163.351 111.725 163.351 111.064C163.351 110.381 163.468 109.645 163.703 108.856C163.959 108.067 164.268 107.523 164.631 107.224C165.783 106.093 167.265 105.123 169.079 104.312C170.913 103.48 172.524 103.064 173.911 103.064C174.721 103.064 175.393 103.416 175.927 104.12C176.46 104.803 176.727 105.517 176.727 106.264C176.727 106.563 176.481 106.808 175.991 107C175.521 107.171 174.828 107.352 173.911 107.544C173.015 107.736 172.097 108.013 171.159 108.376C168.983 109.187 167.895 109.869 167.895 110.424C167.895 110.68 168.268 111.149 169.015 111.832C169.761 112.493 170.572 113.197 171.447 113.944C172.343 114.669 173.164 115.597 173.911 116.728C174.657 117.837 175.031 118.915 175.031 119.96ZM182.159 103.096C182.692 103.096 183.364 103.48 184.175 104.248C185.007 105.016 185.423 105.773 185.423 106.52C185.423 107.245 185.039 109.144 184.271 112.216C183.503 115.288 183.119 117.411 183.119 118.584C183.119 119.736 183.257 120.621 183.535 121.24C183.833 121.859 184.239 122.168 184.751 122.168C185.284 122.168 185.903 121.795 186.607 121.048C187.311 120.28 187.983 119.299 188.623 118.104C189.284 116.888 189.828 115.448 190.255 113.784C190.703 112.099 190.927 110.541 190.927 109.112C190.927 107.661 190.852 106.499 190.703 105.624C190.575 104.749 190.511 104.227 190.511 104.056C190.511 103.395 190.788 103.064 191.343 103.064C192.025 103.064 192.9 103.64 193.967 104.792C195.055 105.944 195.599 107.32 195.599 108.92C195.599 110.499 195.321 112.323 194.767 114.392C194.212 116.44 193.465 118.381 192.527 120.216C191.588 122.051 190.393 123.576 188.943 124.792C187.513 126.008 186.041 126.616 184.527 126.616C183.033 126.616 181.679 125.827 180.463 124.248C179.247 122.669 178.639 121.059 178.639 119.416C178.639 117.773 178.852 115.875 179.279 113.72C179.705 111.544 180.132 109.592 180.559 107.864C180.985 106.136 181.199 104.909 181.199 104.184C181.199 103.459 181.519 103.096 182.159 103.096ZM199.238 126.424C198.747 126.424 198.161 126.019 197.478 125.208C196.795 124.376 196.454 123.704 196.454 123.192C196.454 122.68 196.71 121.624 197.222 120.024C198.801 115.117 199.643 110.819 199.75 107.128C199.025 106.36 198.662 105.752 198.662 105.304C198.662 104.6 199.494 103.939 201.158 103.32C202.843 102.68 204.443 102.36 205.958 102.36C208.518 102.36 210.534 102.957 212.006 104.152C213.499 105.347 214.246 106.872 214.246 108.728C214.246 111.096 213.083 113.24 210.758 115.16C208.454 117.08 205.542 118.392 202.022 119.096C201.019 122.701 200.358 124.824 200.038 125.464C199.739 126.104 199.473 126.424 199.238 126.424ZM209.702 108.824C209.702 108.141 209.457 107.587 208.966 107.16C208.475 106.712 207.814 106.488 206.982 106.488C206.15 106.488 204.998 106.883 203.526 107.672C203.953 108.419 204.166 109.091 204.166 109.688C204.166 110.861 203.857 112.6 203.238 114.904C205.158 114.136 206.715 113.219 207.91 112.152C209.105 111.064 209.702 109.955 209.702 108.824ZM221.249 113.144C222.379 113.144 223.595 113.091 224.897 112.984C226.198 112.856 226.998 112.792 227.297 112.792C227.617 112.792 227.862 112.867 228.033 113.016C228.225 113.165 228.321 113.347 228.321 113.56C228.321 114.499 227.435 115.245 225.665 115.8C223.894 116.355 222.006 116.675 220.001 116.76C219.169 119.341 218.753 120.973 218.753 121.656C218.753 122.019 218.934 122.2 219.297 122.2C221.729 122.2 224.235 121.88 226.817 121.24C227.691 121.005 228.193 120.888 228.321 120.888C228.726 120.888 228.929 121.176 228.929 121.752C228.929 122.52 228.363 123.267 227.233 123.992C226.102 124.717 224.683 125.293 222.977 125.72C221.27 126.147 219.595 126.36 217.953 126.36C216.971 126.36 216.086 125.997 215.297 125.272C214.507 124.525 214.113 123.661 214.113 122.68C214.113 121.677 214.657 119.181 215.745 115.192C216.854 111.203 217.441 108.195 217.505 106.168C217.483 106.104 217.473 105.976 217.473 105.784C217.473 105.485 217.515 105.251 217.601 105.08C217.835 104.483 218.486 104.109 219.553 103.96C220.619 103.789 222.539 103.704 225.313 103.704C229.921 103.704 232.225 104.216 232.225 105.24C232.225 105.901 231.659 106.36 230.529 106.616C229.761 106.787 228.705 106.947 227.361 107.096C225.291 107.331 223.446 107.672 221.825 108.12C221.825 109.571 221.569 111.245 221.057 113.144H221.249ZM249.082 125.432C249.082 126.307 248.474 126.744 247.258 126.744C245.594 126.744 243.844 125.88 242.01 124.152C240.196 122.424 238.906 120.621 238.138 118.744C237.796 119.768 237.562 120.461 237.434 120.824C237.306 121.187 237.114 121.763 236.858 122.552C236.602 123.341 236.399 123.928 236.25 124.312C236.122 124.696 235.972 125.101 235.802 125.528C235.482 126.339 235.172 126.744 234.874 126.744C234.383 126.744 233.786 126.339 233.082 125.528C232.399 124.696 232.058 124.024 232.058 123.512C232.058 123 232.303 122.051 232.794 120.664C234.244 116.419 235.076 112.547 235.29 109.048C234.884 108.728 234.522 108.28 234.202 107.704C233.882 107.128 233.722 106.648 233.722 106.264C233.722 105.624 234.543 104.952 236.186 104.248C237.85 103.544 239.759 103.192 241.914 103.192C244.09 103.192 245.903 103.704 247.354 104.728C248.804 105.752 249.53 107.085 249.53 108.728C249.53 109.944 249.167 111.117 248.442 112.248C247.738 113.357 246.959 114.232 246.106 114.872C245.274 115.491 244.495 116.056 243.77 116.568C243.066 117.08 242.714 117.411 242.714 117.56C242.714 118.072 242.884 118.563 243.226 119.032C243.567 119.48 244.047 120.013 244.666 120.632C245.284 121.229 245.818 121.741 246.266 122.168C246.714 122.573 247.076 122.915 247.354 123.192C247.652 123.469 247.94 123.757 248.218 124.056C248.794 124.611 249.082 125.069 249.082 125.432ZM244.602 109.048C244.602 108.152 243.727 107.704 241.978 107.704C241.146 107.704 240.154 107.939 239.002 108.408C239.535 109.219 239.802 109.965 239.802 110.648C239.802 111.885 239.631 113.251 239.29 114.744C239.524 114.573 239.962 114.275 240.602 113.848C241.242 113.4 241.732 113.048 242.074 112.792C242.436 112.515 242.842 112.163 243.29 111.736C244.164 110.904 244.602 110.008 244.602 109.048ZM270.405 113.144C271.535 113.144 272.751 113.091 274.053 112.984C275.354 112.856 276.154 112.792 276.453 112.792C276.773 112.792 277.018 112.867 277.189 113.016C277.381 113.165 277.477 113.347 277.477 113.56C277.477 114.499 276.591 115.245 274.821 115.8C273.05 116.355 271.162 116.675 269.157 116.76C268.325 119.341 267.909 120.973 267.909 121.656C267.909 122.019 268.09 122.2 268.453 122.2C270.885 122.2 273.391 121.88 275.973 121.24C276.847 121.005 277.349 120.888 277.477 120.888C277.882 120.888 278.085 121.176 278.085 121.752C278.085 122.52 277.519 123.267 276.389 123.992C275.258 124.717 273.839 125.293 272.133 125.72C270.426 126.147 268.751 126.36 267.109 126.36C266.127 126.36 265.242 125.997 264.453 125.272C263.663 124.525 263.269 123.661 263.269 122.68C263.269 121.677 263.813 119.181 264.901 115.192C266.01 111.203 266.597 108.195 266.661 106.168C266.639 106.104 266.629 105.976 266.629 105.784C266.629 105.485 266.671 105.251 266.757 105.08C266.991 104.483 267.642 104.109 268.709 103.96C269.775 103.789 271.695 103.704 274.469 103.704C279.077 103.704 281.381 104.216 281.381 105.24C281.381 105.901 280.815 106.36 279.685 106.616C278.917 106.787 277.861 106.947 276.517 107.096C274.447 107.331 272.602 107.672 270.981 108.12C270.981 109.571 270.725 111.245 270.213 113.144H270.405ZM296.382 114.584C297.235 114.584 297.843 114.669 298.206 114.84C298.59 114.989 298.782 115.277 298.782 115.704C298.782 116.28 297.854 116.867 295.998 117.464C296.04 119.085 296.062 120.643 296.062 122.136C296.062 123.608 295.944 124.717 295.71 125.464C295.475 126.189 295.102 126.552 294.59 126.552C294.078 126.552 293.672 126.296 293.374 125.784C293.096 125.251 292.862 124.387 292.67 123.192C292.499 121.997 292.318 120.419 292.126 118.456C289.95 118.947 288.382 119.341 287.422 119.64C285.758 124.248 284.648 126.552 284.094 126.552C283.646 126.552 283.048 126.253 282.302 125.656C281.576 125.059 281.214 124.44 281.214 123.8C281.214 123.437 281.63 122.307 282.462 120.408C282.099 120.173 281.779 119.843 281.502 119.416C281.246 118.968 281.118 118.541 281.118 118.136C281.118 117.432 282.174 116.76 284.286 116.12C284.456 115.693 284.627 115.213 284.798 114.68C284.99 114.125 285.448 112.845 286.174 110.84C286.92 108.835 287.507 107.16 287.934 105.816C288.126 105.176 288.787 104.579 289.918 104.024C291.07 103.469 291.966 103.192 292.606 103.192C293.352 103.192 294.014 104.227 294.59 106.296C295.187 108.365 295.603 111.128 295.838 114.584H296.382ZM288.99 115.128C289.63 115.043 290.558 114.936 291.774 114.808C291.71 114.189 291.603 113.133 291.454 111.64C291.326 110.147 291.23 109.069 291.166 108.408C290.803 109.603 290.078 111.843 288.99 115.128ZM316.218 119.96C316.218 121.773 315.354 123.331 313.626 124.632C311.898 125.933 309.925 126.584 307.706 126.584C305.487 126.584 303.695 126.04 302.33 124.952C300.986 123.843 300.314 122.701 300.314 121.528C300.314 120.355 300.645 119.768 301.306 119.768C301.818 119.768 302.351 120.024 302.906 120.536C303.461 121.048 304.079 121.56 304.762 122.072C305.466 122.584 306.255 122.84 307.13 122.84C308.005 122.84 308.997 122.477 310.106 121.752C311.215 121.027 311.77 120.419 311.77 119.928C311.77 119.437 311.162 118.616 309.946 117.464C308.751 116.312 307.546 115.128 306.33 113.912C305.135 112.675 304.538 111.725 304.538 111.064C304.538 110.381 304.655 109.645 304.89 108.856C305.146 108.067 305.455 107.523 305.818 107.224C306.97 106.093 308.453 105.123 310.266 104.312C312.101 103.48 313.711 103.064 315.098 103.064C315.909 103.064 316.581 103.416 317.114 104.12C317.647 104.803 317.914 105.517 317.914 106.264C317.914 106.563 317.669 106.808 317.178 107C316.709 107.171 316.015 107.352 315.098 107.544C314.202 107.736 313.285 108.013 312.346 108.376C310.17 109.187 309.082 109.869 309.082 110.424C309.082 110.68 309.455 111.149 310.202 111.832C310.949 112.493 311.759 113.197 312.634 113.944C313.53 114.669 314.351 115.597 315.098 116.728C315.845 117.837 316.218 118.915 316.218 119.96ZM327.57 114.072C327.954 114.072 328.626 113.155 329.586 111.32C330.568 109.485 331.56 107.661 332.562 105.848C333.565 104.013 334.312 103.096 334.802 103.096C335.528 103.096 336.125 103.427 336.594 104.088C337.085 104.749 337.33 105.539 337.33 106.456C337.33 107.096 336.776 108.333 335.666 110.168C334.557 111.981 333.149 114.232 331.442 116.92C329.736 119.608 328.424 121.891 327.506 123.768C327.229 124.365 326.781 124.984 326.162 125.624C325.544 126.264 324.946 126.584 324.37 126.584C323.517 126.584 323.09 125.901 323.09 124.536C323.09 123.725 323.901 121.837 325.522 118.872C325.778 118.403 325.96 118.051 326.066 117.816C325.128 117.453 324.274 116.856 323.506 116.024C322.738 115.192 322.13 114.253 321.682 113.208C320.744 111.011 320.274 108.877 320.274 106.808C320.274 105.528 320.413 104.589 320.69 103.992C320.989 103.395 321.586 103.096 322.482 103.096C322.952 103.096 323.304 103.427 323.538 104.088C323.773 104.728 323.986 105.656 324.178 106.872C324.37 108.088 324.637 109.165 324.978 110.104C325.341 111.021 325.778 111.917 326.29 112.792C326.824 113.645 327.25 114.072 327.57 114.072ZM364.124 119.96C364.124 121.773 363.26 123.331 361.532 124.632C359.804 125.933 357.831 126.584 355.612 126.584C353.394 126.584 351.602 126.04 350.236 124.952C348.892 123.843 348.22 122.701 348.22 121.528C348.22 120.355 348.551 119.768 349.212 119.768C349.724 119.768 350.258 120.024 350.812 120.536C351.367 121.048 351.986 121.56 352.668 122.072C353.372 122.584 354.162 122.84 355.036 122.84C355.911 122.84 356.903 122.477 358.012 121.752C359.122 121.027 359.676 120.419 359.676 119.928C359.676 119.437 359.068 118.616 357.852 117.464C356.658 116.312 355.452 115.128 354.236 113.912C353.042 112.675 352.444 111.725 352.444 111.064C352.444 110.381 352.562 109.645 352.796 108.856C353.052 108.067 353.362 107.523 353.724 107.224C354.876 106.093 356.359 105.123 358.172 104.312C360.007 103.48 361.618 103.064 363.004 103.064C363.815 103.064 364.487 103.416 365.02 104.12C365.554 104.803 365.82 105.517 365.82 106.264C365.82 106.563 365.575 106.808 365.084 107C364.615 107.171 363.922 107.352 363.004 107.544C362.108 107.736 361.191 108.013 360.252 108.376C358.076 109.187 356.988 109.869 356.988 110.424C356.988 110.68 357.362 111.149 358.108 111.832C358.855 112.493 359.666 113.197 360.54 113.944C361.436 114.669 362.258 115.597 363.004 116.728C363.751 117.837 364.124 118.915 364.124 119.96ZM373.749 113.144C374.879 113.144 376.095 113.091 377.397 112.984C378.698 112.856 379.498 112.792 379.797 112.792C380.117 112.792 380.362 112.867 380.533 113.016C380.725 113.165 380.821 113.347 380.821 113.56C380.821 114.499 379.935 115.245 378.165 115.8C376.394 116.355 374.506 116.675 372.501 116.76C371.669 119.341 371.253 120.973 371.253 121.656C371.253 122.019 371.434 122.2 371.797 122.2C374.229 122.2 376.735 121.88 379.317 121.24C380.191 121.005 380.693 120.888 380.821 120.888C381.226 120.888 381.429 121.176 381.429 121.752C381.429 122.52 380.863 123.267 379.733 123.992C378.602 124.717 377.183 125.293 375.477 125.72C373.77 126.147 372.095 126.36 370.453 126.36C369.471 126.36 368.586 125.997 367.797 125.272C367.007 124.525 366.613 123.661 366.613 122.68C366.613 121.677 367.157 119.181 368.245 115.192C369.354 111.203 369.941 108.195 370.005 106.168C369.983 106.104 369.973 105.976 369.973 105.784C369.973 105.485 370.015 105.251 370.101 105.08C370.335 104.483 370.986 104.109 372.053 103.96C373.119 103.789 375.039 103.704 377.813 103.704C382.421 103.704 384.725 104.216 384.725 105.24C384.725 105.901 384.159 106.36 383.029 106.616C382.261 106.787 381.205 106.947 379.861 107.096C377.791 107.331 375.946 107.672 374.325 108.12C374.325 109.571 374.069 111.245 373.557 113.144H373.749ZM391.278 107.704C388.974 107.832 387.715 107.896 387.502 107.896C386.99 107.896 386.478 107.587 385.966 106.968C385.454 106.328 385.198 105.667 385.198 104.984C385.198 103.939 388.238 103.416 394.318 103.416C397.432 103.416 399.726 103.736 401.198 104.376C402.67 105.016 403.406 105.795 403.406 106.712C403.406 106.989 403.246 107.256 402.926 107.512C402.606 107.747 402.2 107.864 401.71 107.864C401.219 107.864 400.323 107.832 399.022 107.768C397.72 107.704 396.536 107.661 395.47 107.64C395.555 107.896 395.598 108.195 395.598 108.536C395.598 108.877 395.47 109.549 395.214 110.552C394.979 111.555 394.638 112.952 394.19 114.744C393.742 116.515 393.251 118.669 392.718 121.208C392.184 123.725 391.811 125.229 391.598 125.72C391.406 126.189 391.214 126.424 391.022 126.424C390.574 126.424 390.008 126.019 389.326 125.208C388.664 124.376 388.334 123.704 388.334 123.192C388.334 122.68 388.771 120.568 389.646 116.856C390.52 113.123 391.064 110.072 391.278 107.704ZM406.284 103.096C406.817 103.096 407.489 103.48 408.3 104.248C409.132 105.016 409.548 105.773 409.548 106.52C409.548 107.245 409.164 109.144 408.396 112.216C407.628 115.288 407.244 117.411 407.244 118.584C407.244 119.736 407.382 120.621 407.66 121.24C407.958 121.859 408.364 122.168 408.876 122.168C409.409 122.168 410.028 121.795 410.732 121.048C411.436 120.28 412.108 119.299 412.748 118.104C413.409 116.888 413.953 115.448 414.38 113.784C414.828 112.099 415.052 110.541 415.052 109.112C415.052 107.661 414.977 106.499 414.828 105.624C414.7 104.749 414.636 104.227 414.636 104.056C414.636 103.395 414.913 103.064 415.468 103.064C416.15 103.064 417.025 103.64 418.092 104.792C419.18 105.944 419.724 107.32 419.724 108.92C419.724 110.499 419.446 112.323 418.892 114.392C418.337 116.44 417.59 118.381 416.652 120.216C415.713 122.051 414.518 123.576 413.068 124.792C411.638 126.008 410.166 126.616 408.652 126.616C407.158 126.616 405.804 125.827 404.588 124.248C403.372 122.669 402.764 121.059 402.764 119.416C402.764 117.773 402.977 115.875 403.404 113.72C403.83 111.544 404.257 109.592 404.684 107.864C405.11 106.136 405.324 104.909 405.324 104.184C405.324 103.459 405.644 103.096 406.284 103.096ZM423.363 126.424C422.872 126.424 422.286 126.019 421.603 125.208C420.92 124.376 420.579 123.704 420.579 123.192C420.579 122.68 420.835 121.624 421.347 120.024C422.926 115.117 423.768 110.819 423.875 107.128C423.15 106.36 422.787 105.752 422.787 105.304C422.787 104.6 423.619 103.939 425.283 103.32C426.968 102.68 428.568 102.36 430.083 102.36C432.643 102.36 434.659 102.957 436.131 104.152C437.624 105.347 438.371 106.872 438.371 108.728C438.371 111.096 437.208 113.24 434.883 115.16C432.579 117.08 429.667 118.392 426.147 119.096C425.144 122.701 424.483 124.824 424.163 125.464C423.864 126.104 423.598 126.424 423.363 126.424ZM433.827 108.824C433.827 108.141 433.582 107.587 433.091 107.16C432.6 106.712 431.939 106.488 431.107 106.488C430.275 106.488 429.123 106.883 427.651 107.672C428.078 108.419 428.291 109.091 428.291 109.688C428.291 110.861 427.982 112.6 427.363 114.904C429.283 114.136 430.84 113.219 432.035 112.152C433.23 111.064 433.827 109.955 433.827 108.824Z" fill="#1E64E6"/>
</svg>
